/* XPM */
static char *db409c94f9e6478991fc72dd1f80f3bdLN3h3aIO8xWsmjFj[] = {
/* columns rows colors chars-per-pixel */
"64 64 172 2 ",
"   c #D5CC87",
".  c #D7CE88",
"X  c #D8CF8A",
"o  c #DBD18D",
"O  c #D7D293",
"+  c #DDD490",
"@  c #DDD590",
"#  c #DCD491",
"$  c #DDD491",
"%  c #DDD591",
"&  c #DCD490",
"*  c #DED490",
"=  c #DED590",
"-  c #DED491",
";  c #DFD491",
":  c #DED591",
">  c #DFD591",
",  c #DCD492",
"<  c #DDD492",
"1  c #DCD592",
"2  c #DDD592",
"3  c #DDD593",
"4  c #DED492",
"5  c #DED592",
"6  c #DFD592",
"7  c #DED593",
"8  c #DED692",
"9  c #DFD692",
"0  c #DED693",
"q  c #DFD693",
"w  c #D8D294",
"e  c #D8D394",
"r  c #D9D394",
"t  c #D9D395",
"y  c #D8D494",
"u  c #D9D494",
"i  c #D8D495",
"p  c #D9D495",
"a  c #D8D595",
"s  c #D9D496",
"d  c #D9D596",
"f  c #DED794",
"g  c #DFD794",
"h  c #DFD795",
"j  c #DDD491",
"k  c #DFD894",
"l  c #E0D693",
"z  c #E0D694",
"x  c #E0D794",
"c  c #E0D795",
"v  c #E1D795",
"b  c #E0D796",
"n  c #E0D795",
"m  c #E0D895",
"M  c #E1D895",
"N  c #E0D896",
"B  c #E1D896",
"V  c #E1D996",
"C  c #E1D897",
"Z  c #E1D997",
"A  c #E2D996",
"S  c #E2D997",
"D  c #E3DA97",
"F  c #E1D896",
"G  c #EEE5A2",
"H  c #EEE5A3",
"J  c #EFE5A3",
"K  c #EFE6A4",
"L  c #F0E6A3",
"P  c #F0E6A4",
"I  c #F0E7A4",
"U  c #F1E7A4",
"Y  c #F0E7A5",
"T  c #F1E7A5",
"R  c #F0E7A6",
"E  c #F1E7A6",
"W  c #F0E7A4",
"Q  c #F1E8A5",
"!  c #F2E8A5",
"~  c #F1E8A6",
"^  c #F1E8A7",
"/  c #F2E8A6",
"(  c #F2E8A7",
")  c #F2E9A7",
"_  c #F3E9A7",
"`  c #F3EAA6",
"'  c #F3EAA7",
"]  c #F4EAA7",
"[  c #F2E9A6",
"{  c #F2E8A8",
"}  c #F2E9A8",
"|  c #F3E9A8",
" . c #F2E9A9",
".. c #F3E9A9",
"X. c #F2EAA8",
"o. c #F3EAA8",
"O. c #F3EBA8",
"+. c #F3EAA9",
"@. c #F3EBA9",
"#. c #F3EAAA",
"$. c #F4E9A8",
"%. c #F4EAA8",
"&. c #F4EBA8",
"*. c #F4EAA9",
"=. c #F5EAA9",
"-. c #F4EBA9",
";. c #F5EBA9",
":. c #F4EAAA",
">. c #F5EAAA",
",. c #F4EBAA",
"<. c #F5EBAA",
"1. c #F4EBAB",
"2. c #F5EBAB",
"3. c #F6EBAA",
"4. c #F4ECA9",
"5. c #F5ECA9",
"6. c #F4ECAA",
"7. c #F5ECAA",
"8. c #F5EDAA",
"9. c #F4ECAB",
"0. c #F5ECAB",
"q. c #F5EDAB",
"w. c #F6ECAA",
"e. c #F7ECAA",
"r. c #F6EDAA",
"t. c #F7EDAA",
"y. c #F6ECAB",
"u. c #F7ECAB",
"i. c #F6EDAB",
"p. c #F7EDAB",
"a. c #F5ECAC",
"s. c #F5EDAC",
"d. c #F5EDAD",
"f. c #F6ECAC",
"g. c #F7ECAC",
"h. c #F6EDAC",
"j. c #F7EDAC",
"k. c #F6ECAD",
"l. c #F6EDAD",
"z. c #F7EDAD",
"x. c #F7EEAC",
"c. c #F6EEAD",
"v. c #F7EEAD",
"b. c #F6EDAE",
"n. c #F7EDAE",
"m. c #F7EEAE",
"M. c #F7EFAE",
"N. c #F7EEAF",
"B. c #F7EFAF",
"V. c #F6EDAC",
"C. c #F8EDAC",
"Z. c #F8EDAD",
"A. c #F8EEAC",
"S. c #F8EEAD",
"D. c #F8EFAD",
"F. c #F8EDAE",
"G. c #F8EEAE",
"H. c #F9EEAE",
"J. c #F8EFAE",
"K. c #F9EFAE",
"L. c #F8EEAF",
"P. c #F8EFAF",
"I. c #F9EFAF",
"U. c #F8EEAE",
"Y. c #F9F0AF",
"T. c #F8EEB0",
"R. c #F8EFB0",
"E. c #F9EFB0",
"W. c #F8EFB0",
"Q. c #F8F0B0",
"!. c #F9F0B0",
"~. c #F9F0B0",
/* pixels */
"e e O O O y O w y e y e w e y y e O O y y y O O y w y y w O y y O O e e e e w w w w w w w O O O O O e e e O e O O O e e e O O w ",
"* * * * * * + * * * * * * * * * * * * * * * * * * * * * * + * * + o * * * * + * * * * * o o o o o * * * * * + * + o * * * * * * ",
"* * { { { { { { ) ) ) ) ) ) { { { ) { { ) ) ) ) -.{ { { { { { { { ) { { { { ) ) ) { ) ) ) ) ) ) { { { { { ) { { ) { { { { { A e ",
"* * j.j.j.S.S.S.j.0.0.0.j.j.j.j.j.j.j.S.0.0.0.0.S.S.S.S.S.S.S.j.j.0.j.S.j.j.j.j.j.j.j.j.0.0.0.j.S.S.j.j.j.0.j.j.S.j.0.j.S.S.A e ",
"o * -.j.j.S.0.0.S.S.S.j.j.j.j.0.0.j.0.0.j.j.j.j.j.j.0.0.j.0.j.j.0.0.j.j.j.S.j.j.0.0.S.j.j.S.0.0.S.j.j.j.j.j.j.j.0.0.0.0.j.j.A * ",
"o * -.j.S.S.0.0.S.S.S.S.S.S.j.j.j.j.-.j.S.j.S.S.j.j.j.0.j.j.S.S.j.j.j.j.j.S.S.S.0.j.S.S.S.S.j.j.j.0.0.j.j.j.S.S.j.j.0.j.j.j.A + ",
"* * -.j.j.j.0.0.j.j.j.j.S.j.0.-.j.j.S.S.j.j.j.j.j.S.j.j.S.S.S.S.0.0.0.j.j.j.S.S.j.j.j.j.S.S.j.j.j.0.j.j.j.j.0.0.S.j.0.-.S.j.A * ",
"* * { 0.0.j.0.0.j.j.j.j.j.j.-.-.j.j.S.S.j.j.j.j.S.S.S.j.S.j.S.j.0.-.0.j.j.0.S.S.S.j.j.j.S.S.j.j.0.0.j.j.j.j.0.-.j.S.-.-.j.j.A * ",
"* g j.S.S.S.0.0.0.j.0.0.0.0.j.j.j.S.j.0.0.0.S.j.S.j.E.S.0.-.j.j.j.j.j.j.0.0.j.0.0.0.j.j.S.S.j.j.0.0.j.j.j.j.E.E.j.j.j.S.j.j.A * ",
"* * j.S.j.S.j.j.0.j.0.0.0.0.j.0.j.j.j.0.-.0.j.j.j.j.E.!.-.{ 0.S.j.j.j.S.0.0.j.j.0.0.S.j.S.S.j.j.j.j.S.S.j.j.!.!.S.j.j.S.S.j.A * ",
"e * j.S.j.j.j.j.j.j.j.S.S.j.0.j.j.j.j.j.0.0.j.j.j.0.S.S.S.S.S.S.j.j.j.j.j.0.0.0.j.0.j.S.S.S.j.j.j.j.0.0.S.S.S.S.j.0.j.0.-.0.z + ",
"o * j.S.0.0.j.j.S.j.j.S.S.S.j.j.j.j.j.0.0.-.0.0.0.0.S.S.S.S.S.S.j.j.S.j.j.j.j.-.0.j.S.S.S.j.j.0.j.j.0.-.j.S.S.j.j.0.0.0.0.0.z e ",
"* g 0.j.j.j.0.0.0.0.j.S.0.j.j.0.j.j.j.0.0.0.j.S.0.0.0.0.0.0.0.0.j.j.-.-.S.j.j.j.0.0.0.0.0.0.j.j.j.j.S.j.0.j.S.E.j.j.j.0.j.j.A e ",
"* * -.j.S.j.j.0.0.0.S.j.0.0.j.j.S.j.j.0.0.0.S.S.0.0.0.0.-.0.0.0.j.j.0.-.S.j.j.j.0.-.0.-.{ -.j.j.j.j.S.j.j.j.S.!.0.j.j.0.j.j.A e ",
"+ * 0.j.j.0.j.j.j.j.0.-.0.j.j.j.S.S.j.j.j.0.j.j.0.0.S.0.0.0.0.-.j.j.0.0.j.j.j.j.-.-.j.j.j.j.0.0.-.0.j.S.0.0.j.S.j.j.j.0.j.j.A + ",
"+ * 0.j.j.j.j.j.j.j.0.-.0.0.j.j.S.j.j.j.j.0.0.0.0.-.S.j.j.j.0.0.j.j.j.0.j.j.j.0.-.] 0.0.j.j.0.0.-.-.j.j.0.0.j.S.j.j.0.0.j.j.A * ",
"+ * -.0.j.j.j.j.j.j.j.j.j.j.0.j.j.0.* o o o o o o o o o -.j.j.j.j.j.j.j.0.0.* o o o o o o o ) 0.0.0.j.j.j.j.S.S.j.j.0.0.j.j.z e ",
"o * -.0.j.j.j.j.j.j.j.S.j.j.j.j.0.0.o     X         X X -.j.j.j.j.S.j.0.0.-.X   X X X X X X ) 0.0.0.j.j.j.j.j.S.j.S.0.0.j.j.z e ",
"+ * -.0.0.0.0.-.0.0.0.0.0.j.j.-.o o X X X X X X X X X X o + { j.0.0.0.-.+ X X X X X X X X X o o ) j.j.j.j.j.j.j.j.j.-.0.j.j.g e ",
"+ * -.j.-.0.-.-.j.0.{ -.0.0.j.-.X   X X X X X X   X   X X X ) 0.-.-.-.-.X   X       X X X X X   I 0.0.j.E.S.j.j.j.j.0.0.j.j.A e ",
"+ * -.j.j.j.0.0.j.j.0.-.j.j.-.) X   X X X X X X X o   X X X ) 0.j.-.o o X   X X     X   X X     o o { S.j.j.j.j.j.0.0.0.j.j.A * ",
"* * -.j.S.j.-.-.j.j.0.0.j.j.-.) X   X X X X X X o X X X X X ) 0.j.0.o   X   X X X X X X X X         { j.j.j.j.j.0.0.0.0.j.j.z * ",
"e * -.0.S.S.0.0.j.0.j.S.j.j.S.0.o X X X L ) ) ) ) { o   X X ) j.j.j.o X       X J ) { ) X   X   X X { S.0.-.S.S.j.0.0.0.j.j.A * ",
"+ * -.j.j.S.0.0.0.0.j.S.j.S.S.j.o X X X { j.0.0.j.0.o X X X { j.j.j.o X     X X ) j.j.j.o   X   X X { S.j.0.S.S.j.j.0.j.j.j.A * ",
"* k -.j.0.j.j.0.j.0.j.j.j.j.j.-.o X X X { 0.0.0.0.0.{ ) -.-.S.S.S.j.o     X K { j.j.j.j.{ { o X X X I j.j.j.E.!.j.j.0.j.j.j.A e ",
"* * -.j.0.-.j.j.0.0.j.j.j.j.j.0.o X X X ) 0.0.0.0.j.j.j.j.S.S.S.S.j.o       -.S.j.S.j.j.j.j.o X X   K j.j.j.E.!.j.j.0.0.j.j.z o ",
"* z -.j.0.0.j.j.j.0.j.j.0.j.j.0.X   X X o o I -.j.S.j.0.0.0.-.-.0.-.o     X { j.j.j.0.0.0.0.o   X X { j.j.S.j.0.0.0.0.0.0.0.z e ",
"* z -.0.0.0.j.j.j.j.j.j.0.-.j.0.o X X X X X J ) 0.S.0.-.0.-.-.-.0.-.o       { j.j.j.0.-.0.-.o   X X { j.j.j.0.0.0.0.-.0.0.0.z e ",
"* * -.0.0.0.j.0.0.0.j.j.j.j.0.0.{ ) o X X X o o o o ) -.0.j.S.S.j.{ o   X o { j.-.-.j.j.j.0.o X X X { S.j.j.j.j.j.j.j.j.j.j.A + ",
"o * -.0.0.0.0.j.0.0.j.j.j.0.0.0.S.S.o X X X X X X X I { 0.j.S.S.j.-.X   X o { j.-.-.j.j.j.0.o   X X { S.0.j.j.j.S.S.S.j.j.j.A * ",
"* * -.0.-.-.S.S.j.j.j.j.j.j.0.0.j.j.-.{ X X X X X X X o -.0.0.j.j.-.X       I -.0.j.S.S.j.0.o   X o ) S.0.0.0.0.S.S.0.0.j.0.z e ",
"* l 0.0.0.0.S.S.j.j.j.j.j.S.0.0.j.S.S.j.o X X X X X X X ) -.0.S.j.-.o   X X I 0.j.j.S.S.j.0.o   X o { S.j.0.j.0.S.E.0.-.j.j.z o ",
"o * -.0.j.j.j.j.j.j.j.j.S.S.S.j.j.j.j.j.{ { { ) o X X   X o -.S.j.0.X   X X { S.-.-.-.-.j.j.o   X X I 0.j.j.S.S.0.0.j.S.j.j.g e ",
"o * -.0.j.j.j.j.j.j.j.0.S.j.E.S.j.0.0.0.j.j.j.0.o X X     X -.S.j.-.X     X { j.-.-.-.0.j.0.o   X X I -.j.j.S.j.0.-.S.S.j.j.z e ",
"* * -.j.0.0.S.S.j.j.j.S.S.j.j.-.-.-.0.j.j.j.0.j.-.{ o X   X { S.0.-.X     X { j.j.0.j.0.j.0.o     X ) j.j.j.j.j.j.0.S.j.0.j.z e ",
"* * -.0.0.0.j.j.j.j.S.S.j.j.0.-.{ { -.-.j.j.j.0.S.j.o X X X { j.0.-.X       I 0.j.j.j.j.-.-.o     X ) j.0.j.j.0.0.-.0.j.0.j.z e ",
"* * -.j.-.-.j.j.0.-.S.S.E.j.S.0.o X o o { j.0.0.0.-.X   X X { j.-.-.X   X   o o I -.0.0.o X X   X X ) j.0.0.j.j.j.S.-.-.j.j.z + ",
"* * -.j.-.-.j.j.-.-.j.S.S.j.S.0.X   X X I { { 0.0.{ X   . X { j.j.-.X   X X X X J { -.-.o   X   X   I j.0.0.S.j.j.j.0.-.S.S.A + ",
"* z j.j.j.j.S.j.S.S.0.-.0.0.0.-.o   X X X X o o o o       X { j.0.-.X       X X o o o o     X X X X ) j.j.j.0.-.0.0.0.j.j.j.z + ",
"* z j.j.S.S.0.j.S.j.-.-.0.0.0.-.o X X X         X       X o { j.0.-.o X     X X X X X       X X X X { j.j.S.0.-.-.0.0.j.S.S.A + ",
"* * -.j.0.0.0.0.S.S.j.j.S.0.0.-.o   X     X   X X   X X X X { S.j.j.{ { X     X         X X   X I -.j.j.j.S.j.j.j.j.j.j.j.j.* o ",
"o * -.j.0.0.0.0.S.S.j.j.S.j.j.0.o X       X   X     X X X X -.!.j.j.0.-.o X   X     X   X X X X { Y.j.j.j.j.j.j.S.S.j.j.2.0.* o ",
"o * -.j.j.j.0.0.j.j.j.j.S.j.0.0.0.{ o X X X       X X X L ] j.j.j.j.0.0.{ ) o   X X X X X X ) 0.2.-.j.j.j.j.j.0.-.0.0.0.j.j.A + ",
"+ * 0.S.j.0.j.j.j.j.0.j.S.S.0.j.S.j.o X X X X X X X X o -.S.S.j.0.j.j.j.j.j.o X X X X o o o -.!.j.2.j.S.0.0.j.0.-.-.0.0.S.j.A + ",
"+ * 0.j.S.j.j.j.S.j.j.j.j.S.j.j.0.0.) ) ) ) ) ) -.-.-.-.j.S.0.j.0.0.j.j.S.j.{ ) ) ) -.-.0.0.j.j.E.E.2.-.j.j.0.0.-.0.-.-.j.j.A + ",
"* * 0.j.j.j.j.j.S.j.j.j.j.j.0.0.j.j.j.j.-.0.0.0.S.S.j.j.j.j.-.0.j.-.j.S.S.j.j.0.0.0.j.j.Y.Y.j.j.S.S.2.-.S.S.j.j.-.0.-.-.j.j.A * ",
"* * -.0.j.j.-.0.0.0.j.0.S.!.0.0.j.j.j.j.-.-.0.0.j.j.j.0.j.S.j.j.0.0.S.S.S.S.j.j.-.-.j.j.-.-.0.j.j.j.j.j.j.j.0.0.S.S.0.0.j.0.g + ",
"* z -.0.0.j.0.0.0.0.j.0.Y.!.0.0.j.j.j.j.0.-.-.0.j.j.0.j.S.S.S.j.0.j.S.S.S.S.j.j.-.-.j.j.-.0.0.0.j.S.j.j.j.j.j.j.S.S.0.-.0.0.z + ",
"+ * -.0.-.0.j.S.j.j.j.0.j.j.j.j.S.S.j.j.S.S.-.-.-.0.j.0.S.S.S.S.j.j.j.j.0.0.0.0.j.j.0.0.j.j.j.0.0.j.S.S.!.!.j.j.S.S.j.j.j.j.A + ",
"+ * -.j.0.0.j.S.S.j.j.j.j.j.S.j.S.j.j.j.S.E.-.{ -.0.0.0.j.j.S.S.j.j.j.j.j.0.0.0.j.j.0.0.S.S.j.0.0.-.S.S.!.!.j.j.j.S.S.S.S.j.A * ",
"* g 0.j.j.j.j.j.j.0.j.j.0.0.0.0.j.j.0.0.j.j.j.j.0.0.0.j.j.0.j.S.0.0.j.j.j.j.j.j.j.j.j.0.S.j.0.j.0.0.j.j.0.0.j.j.j.j.j.0.0.0.A + ",
"* z 0.j.j.j.0.0.0.0.j.S.j.0.0.0.j.j.0.0.j.j.j.j.j.j.0.j.0.0.j.j.-.0.j.0.j.j.j.j.j.S.j.j.j.j.j.j.0.j.S.S.-.0.j.j.j.j.0.0.0.-.z + ",
"* * -.0.j.0.0.0.j.S.S.S.j.j.0.0.j.j.j.0.j.j.0.0.j.j.0.0.0.0.j.S.0.0.j.j.j.j.j.j.0.0.j.j.j.j.-.-.j.S.S.S.S.S.S.j.0.0.0.0.S.S.A e ",
"o * -.0.j.0.-.0.j.S.S.j.j.j.j.0.j.0.j.0.j.0.-.-.j.j.j.0.0.0.S.j.0.0.j.j.j.j.j.j.0.-.j.j.j.j.-.0.j.j.S.j.j.j.S.S.0.0.j.j.S.S.z e ",
"* * -.j.j.j.-.0.0.0.-.-.j.j.j.0.0.-.0.j.0.0.j.j.0.0.0.-.0.0.j.0.j.j.j.j.j.j.0.0.-.0.j.0.j.j.0.0.0.0.0.j.j.j.j.0.S.S.j.j.0.0.z e ",
"* * 0.j.j.j.0.-.0.0.0.0.j.j.0.0.-.-.0.j.0.0.j.j.0.-.0.-.0.0.0.0.j.S.j.0.j.j.j.0.j.j.0.0.j.j.0.0.0.0.0.0.S.S.0.0.S.S.S.j.0.0.z e ",
"o * 0.j.0.0.0.0.j.j.j.j.j.j.0.j.j.j.0.-.0.0.S.S.j.j.j.j.0.0.j.j.j.j.j.j.j.j.j.j.j.S.0.0.j.j.j.j.-.-.S.S.j.j.0.0.0.0.j.j.S.j.z e ",
"e * -.0.0.0.0.0.j.j.j.j.j.j.j.j.S.S.-.0.0.0.j.j.j.j.j.j.0.0.j.S.S.S.j.j.j.j.j.j.j.S.0.0.j.j.j.j.-.-.S.S.j.j.j.0.0.0.j.j.j.j.g e ",
"o * -.0.0.0.j.j.j.S.j.j.-.-.j.j.j.j.j.j.j.j.0.-.0.j.j.j.2.0.j.j.j.j.0.0.j.j.j.j.-.-.j.j.j.j.-.-.j.j.0.j.j.j.j.j.0.0.j.j.j.0.g e ",
"o * { 0.j.-.S.j.j.S.j.j.0.-.j.j.j.j.j.j.S.S.0.0.0.j.j.j.0.0.0.0.j.-.-.j.j.j.j.j.-.-.j.j.j.j.-.-.j.j.0.0.j.j.j.S.j.0.j.j.j.j.z e ",
"+ * -.j.j.j.S.j.-.-.-.0.j.0.0.0.j.j.j.j.j.j.0.0.j.j.j.j.0.0.j.j.S.S.0.0.j.j.0.0.j.j.j.j.j.j.0.0.j.j.S.j.-.-.-.-.j.j.0.-.j.S.A + ",
"* * { j.j.j.j.j.-.{ { { 0.-.-.-.-.-.-.-.0.-.-.0.-.0.0.0.-.-.-.0.j.j.{ { -.-.-.-.j.j.0.-.-.-.-.{ -.-.0.0.{ ) { { -.-.-.{ -.0.z + ",
"* * * * * * * g * * * * * * * * * * * * g g * * * * * * * * * * g * * * * g * * * * * * * * + * * * * * * * * * * * * * * * + + ",
"* * o e o o * + o + + + + o o o e + + e + + + o o + + e o o o + * + o o + * o e o o + + + o o o o o o o o o + + o + o o o o + * "
};
