/* XPM */
static char *f972acf266ce45c8fbfd6365060e587fQHgszuvlW3wOl895[] = {
/* columns rows colors chars-per-pixel */
"64 64 178 2 ",
"   c #6B3216",
".  c #6F371B",
"X  c #653B1E",
"o  c #6D3D1F",
"O  c #733B1E",
"+  c #7B3D1F",
"@  c #643F21",
"#  c #6B3E21",
"$  c #743F21",
"%  c #7B3E21",
"&  c #654123",
"*  c #6C4325",
"=  c #6D4826",
"-  c #6E4728",
";  c #6F4A2A",
":  c #744325",
">  c #7C4324",
",  c #714827",
"<  c #7A4827",
"1  c #724628",
"2  c #794728",
"3  c #734B2B",
"4  c #7B4C2B",
"5  c #75502E",
"6  c #7C512E",
"7  c #774E30",
"8  c #765332",
"9  c #7C5432",
"0  c #7E5936",
"q  c #7C5A38",
"w  c #823D1F",
"e  c #833E22",
"r  c #883F20",
"t  c #834324",
"y  c #8C4425",
"u  c #844926",
"i  c #8C4826",
"p  c #854629",
"a  c #8B4629",
"s  c #844B2B",
"d  c #8C4A2C",
"f  c #924626",
"g  c #984727",
"h  c #944927",
"j  c #994A27",
"k  c #914729",
"l  c #944C2B",
"z  c #9A4D2B",
"x  c #82522F",
"c  c #8E502E",
"v  c #95512E",
"b  c #9C522D",
"n  c #8D4F30",
"m  c #934F30",
"M  c #835533",
"N  c #8D5332",
"B  c #835A36",
"V  c #8D5A35",
"C  c #845C39",
"Z  c #8C5C3A",
"A  c #945332",
"S  c #9B5532",
"D  c #945B36",
"F  c #9C5935",
"G  c #945C3A",
"H  c #9B5D3A",
"J  c #A24E29",
"K  c #A2542D",
"L  c #A4592F",
"P  c #A25631",
"I  c #A35A33",
"U  c #A95C32",
"Y  c #A35E3A",
"T  c #A85E38",
"R  c #85613C",
"E  c #8C633D",
"W  c #8F683F",
"Q  c #90643B",
"!  c #92623D",
"~  c #93633F",
"^  c #92643D",
"/  c #94623C",
"(  c #9A633B",
")  c #9C633B",
"_  c #98633F",
"`  c #9B673F",
"'  c #9B623D",
"]  c #94693E",
"[  c #9B693F",
"{  c #AD6135",
"}  c #A76139",
"|  c #A5663F",
" . c #A3623C",
".. c #A9613A",
"X. c #A8603A",
"o. c #AA603A",
"O. c #A9623D",
"+. c #AB633C",
"@. c #AB643F",
"#. c #A9653D",
"$. c #A9683F",
"%. c #8F6240",
"&. c #8D6640",
"*. c #8E6A42",
"=. c #906440",
"-. c #976540",
";. c #956741",
":. c #946745",
">. c #956541",
",. c #9B6541",
"<. c #936944",
"1. c #946D44",
"2. c #966E45",
"3. c #946B43",
"4. c #996B43",
"5. c #9D6A41",
"6. c #9A6B44",
"7. c #9A6947",
"8. c #9A6C44",
"9. c #9B6F47",
"0. c #9B6B44",
"q. c #966E48",
"w. c #9B6E48",
"e. c #977146",
"r. c #9A7245",
"t. c #9D7046",
"y. c #9D7347",
"u. c #9B7146",
"i. c #967149",
"p. c #997348",
"a. c #9E7548",
"s. c #9C744A",
"d. c #9D794D",
"f. c #9D7850",
"g. c #A36642",
"h. c #A96541",
"j. c #A16A44",
"k. c #A36B44",
"l. c #AB6F46",
"z. c #A46F48",
"x. c #AA6E48",
"c. c #A67647",
"v. c #A17146",
"b. c #AA7046",
"n. c #A5724B",
"m. c #A2754C",
"M. c #A3744F",
"N. c #A5754F",
"B. c #A2744A",
"V. c #AD774E",
"C. c #AB744B",
"Z. c #A2784A",
"A. c #A5794B",
"S. c #A47A4B",
"D. c #A27A4E",
"F. c #A37A4E",
"G. c #AB7D4D",
"H. c #A97A4E",
"J. c #B2754A",
"K. c #B37A4E",
"L. c #A47D51",
"P. c #AE7A51",
"I. c #AA7D52",
"U. c #B07B52",
"Y. c #B27F55",
"T. c #B27B51",
"R. c #A68153",
"E. c #AA8051",
"W. c #AC8150",
"Q. c #AB8354",
"!. c #AC8359",
"~. c #AF895A",
"^. c #B28555",
"/. c #B48256",
"(. c #B1875A",
"). c #B38A5B",
"_. c #B88F5F",
"`. c #B48D61",
/* pixels */
"V V _ 7.E p.W V Z %.:.N.P.U.V.n.N.Y.j.Z Z V N M 2.R 3 8 8 M B C R m.9.E <.9 & 3 7 C C R -.7.! M 2.D.y.9.E ! -.^ Z ! Z M 5 >.m.-.",
"S S S I S y.| o.O.o.@.O.o.O.o.Y h.Y I I P P P z 5.Q.n S A m A F S n A S A n D G A G N n N N n p 9.^.I } Y S F F F F I I c G F l ",
"l l l l v Z.A b z z K b P I T T b b z l z z z j ( W.d a a d d l d d d d p d n A N d p p d d d p ! G.b K K b K b K K b K c D v l ",
"l l l z v a.F z z l l i l b b S b z d l z z K z ) S.l a a d d d d d d d d d A A d d d d d d v d Z S.v L L b b K K b b b D G A A ",
"b z b P v r.D z K K z l z K S P K K U I K z I l V Q a d d A m d d d d d d d A A d n d d l l A d ` c.L L K K K I K K U P S S S A ",
"O O O . $ Q.^ $ t > > t + + > + + % > t t t t : E ^ O % > > O % > t $ O > % > % > > > > t t > % ! B.t t y u u i y t a t d t > 2 ",
"8 3 8 q C L.).p.L.!.!.s.&.C C B 9 8 ; 5 8 8 C 2.a.D.W Z B E 0 B 3 & 8 C 8 3 3 3 3 9 0 8 9 9 9 C a.Q.R R &.a.s.<.p.1.2.a.F.D.d.a.",
",.S S g. .A S Y F Y Y Y Y Y Y F P Y A a.k.A F S F F F S S H H G A A A D A A A G G D 9.F.' H Y g.H A F F Y F F g.H Y T I P Y j.L.",
"A l l l l l z z z l z z z l z z z z l a.G a a d A l k k a k l a a a a a d d d d d d Z ! f z z z l l l l z z l f z J j z z z v a.",
"n l l z z l l l z l l v v v l l z K v !.G a l l l l l k y a a a a a a d d N n d N d / ] l S S b S S S b l l l z z z z z z z l 8.",
"A z z b b z b l b b b l A l z z b P b F.D k l l v l l k a a a a a l l l A A d d n d _ 0.l P S b S S S S z l z z z z z z b z l ] ",
"s t t t p t d t t a d d d d d a a a d W.Z e a a y t > % e e % e y e + . t d d p p t V F.y t O % h l a a a e + a y y r w w y t ] ",
"L.C R R 0 B 0 R i.s.D.L.s.s.i.W <.p.L.).d.3 ; 3 = 5 8 5 3 3 9 B 3 9 9 C 3 & 3 5 3 3 2.R.C 9 r.r.5 9 M 9 3 5 B 8 Z Z C E E E 4.a.",
"G G ,.G ! !.Q.j.x.j.x.j.H  . .g.x.g.g.' k.k.'  .' ' ' 0.F.n.J.K.U.V.b.J.n.R.w.,.,.0.z.,.x.n.z.N.k.,.' _ 9.m.,.>.(.F.,.k. .H H H ",
"d d d d t Z G f l a e h z z z l z z g g g f j z j j h v G.T U { { U U K I Q.N t a d a y a d d l l l l l m d l t W / e y y f l l ",
"n N A A p E ( l z z b z z z l l l z l z z z z z z l z A a.I U U L U U I F Z.N a d d p d d d d l l v v v l l l a E V a l l l l l ",
"A A A A d E G l z b b z z b z z z l z b b z z l z z b A S.I U { U I I I I F.N a d d d d d l l A l l l l l l l a Q / l d l l l l ",
"p p p > > W N e d l l h f f a l h l l d l l y l a a t M !.l K b b b b b O 2.s a p a d d d p t % O e a l a a a t ] ] y a a e a a ",
"B C C 0 R L.R * = = = ; 3 3 - @ & = , * # , 3 3 3 9 W (.~.9 4 6 6 M 6 , Z !.9 * = & & # # @ X & = , * # # X & 3 D.3., , 3 5 M 9 ",
"_./.K.K.V.l.j.k._ G G Z Z G / / ,.k.k.9.L.p.! ! / ,.,.G ,.,.-._ G j.z.s.C.,.` ,.7.9.Z <.p.j.n.C.U.P._ ,./ ! 0.n.n.b.k.5.' b.b.0.",
"k.S K z b K z z l l l y l l l b P L K I (.0.l l l a d l l l l d a k l A l l l l d d p / S.K I P K K P T } I S b b b b K K K K ( ",
"5.v S S S P b l l a l d l l b b b K K b B.k.l l l l l l v S l l l l l l l l l l l l d / B.b b b K b I b I b v S b v v I I I I / ",
"` S F S S P b z z l l A l l l S b b I K y.` l l l d v l d d d d d d a l l l d d l d d N ] b b S b P F S b S S S b A A I b I P N ",
"` l l h l a f l a t l v l l b S b b b f v.^ a a a a d a y a t e e % e a a a l d a d t s B.l b z z b S v b b b b l t d l l z y x ",
"D.V M M 6 C M M B 9 9 4 6 4 3 2 2 < M B Q.R.8 9 9 4 9 B 4 3 8 Z B Z 9 , B B 4 3 3 5 5 E D.9 4 2 4 x M 9 4 < < x M 9 M 3 6 6 E Q.",
"j.,.` ,.,.k.,.,.k.x.n.0.7.7.p.a.n.0.j.x.5.j.C.n.z.n.z.b.z.j.C.).~.w.z.7.k.,.G G ,.z.z.,.,.,./ G ,.5.,.' ' G / 4.R.0.j._ G ' ,.' ",
"l l l z l l l l l l l v S z 0.` b b z h z z l z K S F K L L z G F.d l A A S S b b l b b l l l l l l l h l l z D 2.d l A l f h l ",
"v A A l l S S v l v A A S b ] D l l b b b b A z b S F K I K z G r.l l l A l d l A l z S S S l l l l v l l l z D r.t d a l l l l ",
"l d d l l l A l b S A v A S 0.' z l l b l l l l d l l l b b b G 2.d l l l v l l l z b l l A l d l A A v l l z A r.d d d d l l l ",
"S d l z l l l a l l b b b l B.8.w z l t a z z h a l l a h K K N R l b z l d d l a y l z l l a t d l v S l l d N 9.p p l l l l v ",
"2 s s s s s 6 4 3 2 2 2 s < D.D.* o X * : O : o # $ % > o O O M D.2 $ : : * X * 4 x < 2 < 4 6 B 4 2 : * : : < <.s.- 3 4 < 2 : : ",
"s.s.I.Q.I.Q.Q.I.R.Q.i.f.~.`.).I.D.L.s.L.p.p.L.q.s.&.&.<.p.&.R L.(.L.p.i.p.m.<.4.L.D.W 4.2.<.~.!.I.p.s.L.r.0.n.H.H.N.c.n.v.r.d.D.",
"H F U U I K I I  .L.G G D A G G A A A n d A A N s F.5.d n N A N d n A N N N A A l d d d n N F A S S ^ c.b K I K L L L L U F a.) ",
"S S K K K K K h d B.d d d d d d d l d d d d A A d y.! t d p d d d d d n d d d d l d a d d l l l v a Z ` j b K L L K b b L I r.F ",
"b b K K K b K K v 2.d d A l l a d A d d d N A A p Z./ d d d d d d d s d d d d d a a p d d d d d d d 4.v.j b z b b b b b L F a.H ",
"z z z z z z K J F !.d d l l l d a d a p d A A A t 2./ l l d d d l d d d d l l k l d d d l l d d l h 4.<.i b b K b b K I U b a.( ",
"2 4 p > : $ : > Z Q.M 4 2 > : $ 2 2 : : : * : , * s.a.< : o # 2 < : 2 : 2 : : $ > > > $ % > d p t u r.R.9 > > > > > > u u > 2.4.",
"s.F.D.L.s.p.&.R s.F.s.B.9.2.&.s.p.s.L.s.1.&.B &.s.9.s.s.q.s.L.m.&.R <.q.1.q.&.&.<.&.&.<.&.<.2.R R p.m.s.4.9 9 9 8 9 B C R E y.s.",
"F S j.Q.S Y Y Y F F Y I F S S  .F S Y S G.H.H Y F F S F F F S F F S S S S F S I I H R.H F S S F F A F S S I I I I T T T T I I b ",
"l z D 0.b l l b b b S S v l l d l l l l 0.] S S l b b v d d l l v v v l l l z b K b e.l l l l l v l l l l l b b b l b b b b b h ",
"b z G [ l A l l l v b S A S A v d a l z 0.[ S l d l A l l l l l l l l l l l z b b v a.v l l l l l d l l l l v l l l l l b b j l ",
"b z D ] k l l l l b S l A A A v d d l l 0./ l l l l A A S A A l l l l l l l b S b v s.d l l l l l l l l v l v l l l l d l b z z ",
"a y V W O O > > > > t > > > : % % % t > 4.E O % > > t > > > > > > % + O O + > t t 2 d.p t t a t t t > + % + % + O t > % > t w + ",
"R R s.L.&.R &.1.d.s.2.E C 0 9 ; q 9 C &.d.L.*.*.i.&.C *.<.1.e.d.i.E 3.s.d.&.R 0 C i.R.&.R E C B 9 C R E E R &.*.E R 0 9 3 8 0 C ",
"l.| Y } } Y } I @.@.} } F D.I.j.,.G _ F F H H H G G ,. .Y H H F F F Y H L.z.| k. . . .} #.$. . . .@.@.@.$.| #. .|  .d./ T T } o.",
"K b P K b z l b b b l l l 4.! y d l l l l l l S S S S l l l l l h h l l 8.A z z l l b K K b b K K K L K K L K L I K 2.v K K z z ",
"P b b b K b S P S b v S d ] ! d d l l v l l v b b b l l l l l l l l l h 4.F z b b b b z z K S P S K b b b b I I b l 8.A K K K b ",
"I P K K I b b b S b S S A 2.V l l l l l b S v b b b z z z z l a z l z l ^ F P b b b b K K K b b I S b b b b L L K b ^ A K P K K ",
"l h h a a h h l a a a a c a.M t t t y y t a a t t y a y w e O > y y t % s.M + % t a t t f h h l z l a a y t i h i t <.p y y y y ",
"C R R R <.C 0 B 0 R C B W s.R 9 3 3 3 9 C B B 0 9 8 8 9 9 9 9 3 * - 8 &.R.s.R &.&.0 0 0 9 9 3 6 9 3 * @ & 5 C 3 9 R d.C 5 9 5 5 ",
" . .H ' H  .g.L._ Y  .Y Y I Y F S F  . .g.H H  .F F F F H 5.p.N D D G G N D ,.G D G D D / E Z E w./ ! R D.0.H _ ' ' 0.0.,.( ' ' ",
"z z z g h z b 4.v j h z z z z z z z z g l h g l g f f f f D B.n n d t p a a d d d d p p d > d a d d l d a.N a l l l b S l l l b ",
"z z z z z b l ^ v h z z z z l z z z l l z l l l l l l l f V r.p d s d d d d a t d d d d a d p p d d l d e.D l b l v l l l l l b ",
"l z z z l l d 2.S z z z z z K z z l l z l z z l l l f l f G s.s s d d d d d d d d d d d d d d p p d d d 2./ l v l l l l l l l b ",
"y f a t a y t <.d y y a f y y l a a l f a f h l f y y e   <.p.p p > p p p t t d p t p a t t p p p p d t W G a i i a a a h l l j ",
"3 = @ * 4 3 R Q.C ; ; 3 3 3 = = 3 3 1 * * = = * = 3 - ; R R.2.3 & & * - - - = - & - 3 # * = * * = , = 8 L.C * 3 3 3 3 4 4 4 4 s ",
"n.G / G D Z ,./ G D D D / -.-._ 5.` / G G G ^ d.9.! Z Z G =.>.G Z 7.=.G G Z Z Z N Z / G -./ 2.a./ H _ _ H H ( ' ( ( ,.j.' ,.v.R.",
"H l l f f l l l l f k g h z z z z z z z b K F Q.V s d d d n d a d d n n a p p d l l y a f a M r.l j z z z K z l j f f f f l l [ ",
"G l l l l k y k l f f k l z z b z l z b b z b 2.N N d d d d d d A A s p p a d d a a f f l d V F.l z b z b h l l l z l z l l l [ ",
"A k k k k k k l f y y a l l z z l l l h l l d 4.s p p a d d d d n p p p t p d d d l a l v d N r.h z z j h l l l l h z l l b l ! ",
"A f y y y e e y y y f k z l f g z b b l l b A 9.p a a a a a p p p d d d a p d a l l f k z l A W f z z z j z z l f a a l z z y ` ",
"r.4 2 : 2 4 4 2 2 2 s > > 2 2 > > > > > > > 6 L.3 # # # : , 4 9 6 4 2 : # : : : : > p > > 2 C e.< > t 4 > > > s < 2 4 < > > V a.",
"7.E Z Z V ,./ Z / 7.0.! ! >.E -.C *.W E E E -.0.E Z Z M V Z >.-.! p.d.%.Z C C C E <.4.E &.<.s.0.-.B M Z E E >.4.>.Z -.L.R.e.] G ",
"l l l l k y z z k l l z l l S b A D._ k l l k y a l l l l d a l a 4.7.A A A A N A n d l l A l d d l l l l l l a l l l N d.5.f l "
};
