/* XPM */
static char *b6c1380836c44322c4bd39d9e964e791h9KRtZpcPpU3vbLr[] = {
/* columns rows colors chars-per-pixel */
"64 64 167 2 ",
"   c #D6AB6B",
".  c #D9AE6D",
"X  c #DDB16E",
"o  c #D9AF70",
"O  c #DEB574",
"+  c #DFB779",
"@  c #DFB87A",
"#  c #E1B46F",
"$  c #E2B775",
"%  c #E0B676",
"&  c #E0B776",
"*  c #E1B776",
"=  c #E0B777",
"-  c #E1B777",
";  c #E1B675",
":  c #E0B675",
">  c #E1B875",
",  c #E3B874",
"<  c #E2B875",
"1  c #E3B875",
"2  c #E0B876",
"3  c #E1B876",
"4  c #E0B877",
"5  c #E1B877",
"6  c #E2B876",
"7  c #E3B876",
"8  c #E2B976",
"9  c #E3B976",
"0  c #E2B877",
"q  c #E2B977",
"w  c #E3B977",
"e  c #E4B875",
"r  c #E4B976",
"t  c #E4B977",
"y  c #E4BA76",
"u  c #E4BA77",
"i  c #E1B877",
"p  c #E0B778",
"a  c #E0B778",
"s  c #E0B878",
"d  c #E1B878",
"f  c #E1B978",
"g  c #E0B879",
"h  c #E1B879",
"j  c #E1B979",
"k  c #E2B878",
"l  c #E2B978",
"z  c #E3B978",
"x  c #E2B979",
"c  c #E3B979",
"v  c #E3BA78",
"b  c #E2BA79",
"n  c #E3BA79",
"m  c #E0B87A",
"M  c #E1B87A",
"N  c #E0B97A",
"B  c #E1B97A",
"V  c #E0B97B",
"C  c #E1B97B",
"Z  c #E2B97A",
"A  c #E1BA7A",
"S  c #E1BA7B",
"D  c #E2BA7A",
"F  c #E3BA7A",
"G  c #E3BB7A",
"H  c #E2BA7B",
"J  c #E3BA7B",
"K  c #E2BB7B",
"L  c #E3BB7B",
"P  c #E4BA78",
"I  c #E4BB79",
"U  c #E4BB7A",
"Y  c #E4BB7B",
"T  c #E3BC7B",
"R  c #E4BC7B",
"E  c #E0B97C",
"W  c #E0B97D",
"Q  c #E0BA7C",
"!  c #E1BA7C",
"~  c #E0BA7D",
"^  c #E1BA7D",
"/  c #E1BB7D",
"(  c #E2BA7C",
")  c #E2BB7C",
"_  c #E3BB7C",
"`  c #E2BB7D",
"'  c #E3BB7D",
"]  c #E0BA7E",
"[  c #E0BB7E",
"{  c #E1BB7E",
"}  c #E0BA7F",
"|  c #E0BB7F",
" . c #E1BB7F",
".. c #E2BB7E",
"X. c #E4BB7C",
"o. c #E3BC7C",
"O. c #E2BC7D",
"+. c #E3BC7D",
"@. c #E3BD7D",
"#. c #E2BC7E",
"$. c #E3BC7E",
"%. c #E3BD7E",
"&. c #E2BC7F",
"*. c #E3BC7F",
"=. c #E2BD7F",
"-. c #E3BD7F",
";. c #E4BC7C",
":. c #E5BC7C",
">. c #E4BC7D",
",. c #E4BD7D",
"<. c #E5BD7D",
"1. c #E4BD7E",
"2. c #E5BD7E",
"3. c #E4BD7F",
"4. c #E5BD7F",
"5. c #E4BE7F",
"6. c #E2BA7B",
"7. c #E0BA80",
"8. c #E1BC80",
"9. c #E1BC81",
"0. c #E2BC80",
"q. c #E3BD80",
"w. c #E2BD81",
"e. c #E3BD81",
"r. c #E3BE80",
"t. c #E3BE81",
"y. c #E1BC82",
"u. c #E1BD82",
"i. c #E2BD82",
"p. c #E3BD82",
"a. c #E2BD83",
"s. c #E2BE82",
"d. c #E3BE82",
"f. c #E2BE83",
"g. c #E3BE83",
"h. c #E3BF83",
"j. c #E4BD80",
"k. c #E4BE80",
"l. c #E5BE80",
"z. c #E5BF80",
"x. c #E4BE81",
"c. c #E5BE81",
"v. c #E4BF81",
"b. c #E5BF81",
"n. c #E4BE82",
"m. c #E4BF82",
"M. c #E4BF83",
"N. c #E2BE84",
"B. c #E3BE84",
"V. c #E3BF84",
"C. c #E3BF85",
"Z. c #E2BE86",
"A. c #E4BF84",
"S. c #E4BF85",
"D. c #E3BE81",
"F. c #E5C083",
"G. c #E3C086",
"H. c #E3C087",
"J. c #E4C084",
"K. c #E5C084",
"L. c #E4C085",
"P. c #E5C085",
"I. c #E6C184",
"U. c #E4C186",
"Y. c #E4C187",
"T. c #E5C083",
"R. c #E4C188",
/* pixels */
"O O O ` +.>.m ` ` ` m m = m ` q.` ` m m Y >.m 5 ; = Y R Y >.>.>.x.x.m 5 >.m ; 5 = = m m m m + ` q.q.+.m m m +.T O O X X O O ` @ ",
"5 O O m >.` ` m ` R m Y y m ` @ + m ` = = m ; 5 = O m R X # >.>.>.= 5 m x.5 5 5 ; = ; m m @ + ` ` +.m m m m m m O O . O O p ` ` ",
"O O m O m >.` m >.>.O = 5 m m +.@ m O = 5 = ; , ; y 5 5 = 5 Y m 5 5 >.>.m = 5 ; = = 5 m m O +.` >.m m m m m 5 O O O O O O m m O ",
"O + ` ` m x.+.m ` x.Y 5 y m m m m O O O ; = , ; # ; , y 5 5 ; ; +.x.>.+.m 5 m = ; = m >.` O m +.+.+.m m R T m = O O m + + = m 5 ",
"+ O ` +.m +.+.+ m m 5 5 ; m m ` m O ` = 5 5 y # ; ; = ; Y Y >.m ` +.` m m R R m m +.q.` ` m m +.>.m 5 m m = m R = = m O + m m ` ",
"@ m + m ` ` m + m = 5 5 5 R q.q.q.` ` Y m Y y 5 ` m m m >.Y >.x.q.q.+.` +.m +.` x.Y.q.` +.+.m +.+.O = +.m m = = m m m O O = O + ",
"` + + +.q.` + O ` m m m m ` ` q.q.+ m 5 5 m m m = = >.>.Y 5 m >.m +.` ` q.` +.q.x.A.q.` +.m m m p O O ` ` m m 5 m = O O O O O O ",
"+ + ` +.m m ` m m m ` m m m m ` @ @ q.q.x.m m m 5 m ` m +.>.Y >.x.m m +.q.q.+.q.q.q.` x.m = m m O m O m ` m 5 5 = O ; O O O m O ",
"m m m m = m m m m m m = m m m q.` ` ` q.q.+.m ` 5 5 Y m +.x.+.I.+.m ` x.A.q.` x.q.q.+.` O O m m O O O m m m m m ; = ; ; ; O = m ",
"` ` m 5 5 = m O m m m m >.x.q.7.q.` ` q.N.q.` m = m >.+.+.` +.q.+.m ` +.q.+.` x.+.m +.+.m m m @ O + m m O = ` m 5 ; = ; = m 5 = ",
"q.q.` R m m m O m m ` +.+.q.` ` q.x.x.A.q.q.q.q.x.` m m m m x.` +.+.>.x.+.+.+.>.m m A.Y.>.+.m m O + O O O O m 5 = O = = m m 5 O ",
"q.q.m m ` m m m ` +.+.m m +.` q.q.q.A.A.q.x.x.q.x.I.+.m m m >.+.T m >.>.+.` ` >.m >.+.+.m m = 5 O O O O O O ; = O 5 m = m 5 = O ",
"` m m m m m m ` ` ` m m = m m ` N.N.N.q.q.q.+.` +.+.` m +.` m >.` m +.x.>.+.>.>.m +.>.m m >.Y = O = O O O O O ; 5 +.` m ` m O O ",
"+.m m = ` p m ` ` . O +.` m + +.q.N.Y.A.q.q.q.+.+.m ` m m >.x.+.` m m >.+.>.+.>.m m >.m m >.>.m O = O O O m m = 5 m m ` m O m ; ",
">.m O +.` O O O O . O m ` m m q.N.q.q.q.x.+.x.x.m m +.+.+.>.q.+.` m m m +.q.m m m >.+.m m m Y m 5 m 5 = m +.m 5 5 m = +.m m m O ",
"+.m m +.O + O O o O O m m m m m q.7.q.A.N.+.x.` m ` >.+.m O ` +.m m m m +.m m m 5 m m m m m m 5 m m 5 m +.m ; ; 5 m = m = = m = ",
"m ` m m m 5 O O O O O = m m m x.x.+.+.N.R.Y.Y.` m ` x.x.+.` +.+.m >.>.+.m m 5 O 5 m ` ` m m m 5 = m = 5 m 5 m m 5 m m m = m m = ",
"m m m 5 = O O O O O O O = m m m x.q.q.Y.Y.Y.N.Y.+.` x.>.x.+.m m >.5 m m 5 Y Y m ` ` ` ` m 5 5 5 ; 5 m m 5 ; 5 m m m = = ` m O O ",
"m m 5 = = O O O O O X . O O 5 T q.H.H.N.N.q.q.Y.>.>.+.>.+.` m ` m m 5 = 5 m m m ` O m +.m 5 m y 5 m m m m m q.+.m m m O 5 O O O ",
"m Y m 5 m m = m O O O     . = m x.q.q.+.Y.x.+.>.>.>.>.>.+.+.` m m m 5 5 m = 5 m = O m m 5 5 Y R Y m m >.` ` +.m 5 m +.5 = O O = ",
"m m = T m ` m + O m O     5 5 5 Y m m >.x.+.x.x.>.x.x.+.` ` @ ` m 5 = m +.m m +.= 5 m ` m m >.m m >.+.m m q.` m ` = m m m O O m ",
"m m m m ` >.` O O O O O . . O = = = m m +.q.` +.>.>.m ` >.>.m m m m = 5 = ; m >.m = m m m Y m 5 >.R m 5 5 +.+.` m O O m + O ` ` ",
"` +.+.O m X.` m @ O O + O . O m 5 m +.` m x.+.+.m ` ` +.+.+.` m m m = = = ; = m m X = O = m m >.x.>.m 5 5 m ` @ @ + ` + O + +.+.",
"m ` m m m m m m O O O + O O O O ` ` m = = m ` +.+.>.R ` +.+.+.` = m 5 = m 5 Y +.m 5 m O = m m m m x.>.m = m m @ @ + ` ` m + m m ",
"` m m m m m ` m O O 5 O m 5 O ; m +.+.m ` T +.+.>.R 5 m x.+.q.+.= = = = m m +.+.5 ; 5 m m m >.= = m m m = = m ` +.` ` m ` m m ` ",
"` +.m m >.m m m O = = O O = m 5 5 +.>.m +.T >.>.m m m m +.+.` ` m = m O O = O m 5 5 m = m 5 x.5 5 m m m m m m m ` ` ` ` +.+.` ` ",
"` ` m m Y m 5 m >.Y = m m ; m m +.>.>.O m I.x.m >.>.I.` p + O p m m O O m m m ` m = m +.m 5 m m m m 5 = O O m m m ` + ` +.` ` ` ",
"m m >.m = 5 = 5 R m m m O m m m m m R >.>.>.m >.m m m ` m m + m + p O O m ` m ` m m Y >.m m m O O m 5 O = O O 5 m m ` m m m m 5 ",
"p p m m m 5 = ; O = = O = +.m >.m T R m = = 5 ` 5 m O @ m ` m m m O m m m T m m ` m T Y m +.m = O O = 5 m = O = +.` +.` m O m m ",
"m O m >.m 5 >.; O 5 = = x.x.m ` m m m ; O O m m = m m O O m m m O O = m m m m m m O m >.m +.` = 5 = 5 m m m m ` m m + +.m = m m ",
"m m m m m Y >.Y m m m m +.x.m m 5 R m = = = m m m +.m m m = m p m m = m 5 5 5 5 5 = m m +.>.5 O = ; m +.m m m m m m ` ` m m ` ` ",
"m m ` R m = 5 >.>.>.>.+.+.x.Y Y m >.5 m m = m +.` ` m m + m m O m m ` m = 5 Y 5 m >.5 ; m m = m m m ` ` m m = O = ` +.m m m m m ",
"5 m m >.Y # ; R 5 R >.+.>.>.5 5 m m m m = O ` ` m m m ` @ ` O O m m m + O = m 5 R m m >.= 5 Y R m +.` m = O 5 O = x.+.m >.+.` m ",
"= m m m 5 ; ; ; X = ` +.>.m 5 = m m m m ; O q.m m m ` ` ` + O O m ` + O = = 5 = >.m m ; ; = m m +.+.` 5 ; = = ; m ` O +.>.+.O O ",
"5 m 5 ; ; ; 5 ; ; 5 m +.+.m m m >.>.` +.m >.x.x.>.m m ` +.+ = 5 +.+.m O m m = ; 5 m = O ; = = 5 ` x.m O . = O m ` q.O ` m m m O ",
"= = y ; = ; 5 ; ; y Y m ` +.m m +.+.` m >.I.x.q.+.>.m ` m m +.m m m m m m m m ; 5 5 = +.m m m 5 O m O O O m O m + + ` q.` + ` O ",
"m m Y ; 5 = = = 5 5 m +.m X.m = >.m +.+.m >.q.q.x.+.` @ m m ` ` m = m m m m Y ; , 5 >.>.m +.m m m = O ; O m O O O m ` ` ` m m m ",
">.X.5 ; 5 m y 5 x.Y m >.>.>.>.m m m +.+.m ` x.x.>.m +.+.m +.` m m m m = O m 5 = m R >.>.5 m R m m m m = = 5 5 = X m ` ` m m ` m ",
"` m m m Y Y R >.+.T m >.m m m m m O = m = +.q.A.+.x.x.x.+.+.= m +.m = O m m m 5 5 >.>.Y >.m = m 5 O >.T 5 5 O O O m ` x.+.+.` m ",
"m m m m m m m Y ` +.+.+.m = 5 m m = 5 m m ` +.x.+.>.+.>.+.` +.+.+.+.O m +.m m ; 5 m Y 5 m m m m = O = = 5 m O 5 m = m m m m m m ",
"= O 5 R m m m m m m m m m m m ` +.m m = = m m m m m ` >.m m m ` ` +.m >.+.m m m m R m m m = +.m m O O O O m O O m m O X 5 m = O ",
"= = = O m m m m 5 5 m ` m m m m +.` m m O m m O = +.` m = m m m m m m = m m m m O m m ` >.m ` m >.m m m m 5 O = = O O O O 5 O O ",
"O m 5 + = O m = m m m +.>.+.m O m @ m +.` @ O = m +.q.` 5 >.` ` +.m m 5 m m O m ` m ` >.>.m m m m O = m 5 m m m O O m O O O O O ",
"m ` ` +.m m = = Y 5 = O m + O m m m m +.m m O O m +.+.>.+.m ; 5 m m >.T >.q.` m ` +.x.>.>.m m m m O m ` O O O m m = O O . X O O ",
"m + O ` p m = = ; O O . 5 m m >.+.5 m I.+.m ` m m O m x.m m = 5 +.` +.m m q.` ` ` ` I.x.m m >.>.= ` ` = O O . O m O O O O X O O ",
"O O m = p m O O = = O O 5 m = ` ` 5 m ` m + m ` m +.+.+.m = m ` +.m = = m m ` m ` +.` +.+.>.x.+.x.x.` O = 5 O O m = X O ; ; O O ",
"= O = m m m O = 5 O m m m = m m ` ` m m m ` m m +.+.m m 5 m ; = ` 5 O O m m m m m ` +.+.m +.>.x.q.` m O O = O m m 5 X X ; ; = O ",
"m m m m 5 m m O O O m m 5 O = 5 m m 5 m +.+.m O m m 5 5 O = 5 = O O 5 m m +.m m m m ` ` m T m +.` + ` m m O O +.O = X O O O O = ",
"m = O = = 5 m O O O = O 5 ; = 5 ; = ; 5 m m m m m m 5 T q.+.+.m O = = m ` ` m = m ` m ` m m >.+.+.O O O m m m m m O O O O . . O ",
"O O = O O O O O O m = O ; = 5 O X X 5 5 O m m +.+.m 5 5 m m ` m 5 5 5 5 +.` m m m m +.m 5 >.>.x.m m O O m m m m m = O O O O O O ",
"O O O O X O O O O m O O O 5 ; O O X m m m m m >.m ` m = m ` 5 m m m 5 5 m m +.>.T ` T m +.>.+.m @ m O O m m O m m = = O @ O O O ",
"m = m m = = O O m m O m 5 = m 5 = = m >.>.m m m >.m = m = 5 = m >.m 5 >.Y m m R m m m m m +.x.` ` ` 5 O m O O m +.m O + O + ` + ",
"m O O 5 = O = = O O O m m m m 5 m ` m m m m ` +.+.m +.m = O m ` >.m R >.>.+.m Y R R R +.+.x.x.>.m m 5 5 = + @ ` q.m @ @ + @ @ @ ",
"O O = = O O = O O m m O m m >.m m m 5 ` m m = +.q.m m m = m m +.m m 5 m m +.q.m m m +.m m I.x.m m m m 5 m q.` +.m @ ` q.` @ 7.` ",
"O O O O O O 5 O m O O O O O m m q.+.5 = m >.= m +.m m = X = O m m = m m +.+.+ >.m m m m m m m m @ m m = m q.m @ @ +.q.` ` q.7.@ ",
"O X O O O O ; ; m = O O O m = m m m m @ m +.+.m m m m m O +.m m 5 m 5 m ` m = 5 O O m m m m O 5 = = = O m m m m m + ` m @ ` + + ",
"O O = O 5 O ; O = = O O m m m ` ` ` m m p m ` +.+.` ` ` m +.x.+.m >.m m m m O = O = m = +.m m m m 5 m 5 m m m ` = m m m O O O m ",
"m m = O O = = = m = = O O m m ` +.+.` m +.` m ` x.` +.` +.+.q.A.m +.` q.m = O O m 5 ; ; 5 m 5 m ` m 5 m = 5 ` ` = = + O O O O O ",
"p O = O O 5 = 5 m O O O = O m ` O ` +.m m m ` ` x.x.+.+.m ` ` ` ` q.@ @ O m m m m ; X ; = m = ` >.m m 5 5 m ` m m m O O O O O O ",
"O O = = 5 = = = O O O O = 5 O + + ` +.` ` ` +.` m m m m m +.m ` q.q.` ` = m m ` m m O 5 +.5 = m m m m m O O m m m 5 O O O O O O ",
"O = 5 = +.m p O O O = O O O O ` ` ` +.m O m +.m O m ` m = m O ` q.q.` m O m +.` ` m m m +.m = m +.>.+.m O m @ O O = m O O O O O ",
"O O = O m = m O O 5 = O O + ` ` ` ` ` ` O m m O O m p m m O m +.` ` ` m O O @ ` 5 m m m m 5 m m ` +.m m m = @ @ O O m O O m = O ",
"O O O = O = O O m m 5 m 5 p m m @ @ p m = m = O O m O O m +.q.+.q.` q.q.` O ` +.m m O X 5 m m m +.m m m m m m m m O = O m ` O O ",
"O O O = m = O ; = m m = O + m ` ` m m O O m = O O = O @ ` N.` q.` + ` q.m m ` q.m m O O = ` ` O O O m m m m m m m m = = m O O O "
};
