/* XPM */
static char *c92dfc89b3ea4319e72b7e9ffdd3edfbpLjgayQmgwpxJVUA[] = {
/* columns rows colors chars-per-pixel */
"64 64 163 2 ",
"   c #1F6197",
".  c #1C619C",
"X  c #39678D",
"o  c #3C6A8F",
"O  c #246194",
"+  c #2A6394",
"@  c #26659C",
"#  c #2C679A",
"$  c #2E6A9D",
"%  c #326692",
"&  c #356995",
"*  c #3C6B93",
"=  c #346C9C",
"-  c #3A6F9B",
";  c #3D719E",
":  c #2E6DA2",
">  c #336FA1",
",  c #3670A2",
"<  c #3C73A2",
"1  c #3F78A8",
"2  c #446E8F",
"3  c #426E93",
"4  c #457195",
"5  c #4B7496",
"6  c #43739C",
"7  c #4B769A",
"8  c #4D799D",
"9  c #527796",
"0  c #567A97",
"q  c #5C7C96",
"w  c #507798",
"e  c #537B9B",
"r  c #5A7E9C",
"t  c #607F9A",
"y  c #4276A2",
"u  c #4877A0",
"i  c #4579A5",
"p  c #4C7CA4",
"a  c #477BA9",
"s  c #4C7EA8",
"d  c #537EA2",
"f  c #587FA0",
"g  c #517FA8",
"h  c #5E819D",
"j  c #63839C",
"k  c #6A869C",
"l  c #6D899E",
"z  c #708A9F",
"x  c #4F80AA",
"c  c #5481A6",
"v  c #5C83A4",
"b  c #5482A9",
"n  c #5B86AA",
"m  c #5E88AC",
"M  c #5C8AB0",
"N  c #6286A4",
"B  c #6887A0",
"V  c #6689A6",
"C  c #6C8BA5",
"Z  c #6087A9",
"A  c #648AAB",
"S  c #6B8EAC",
"D  c #728EA5",
"F  c #788FA1",
"G  c #718FA9",
"H  c #6E90AD",
"J  c #7691A6",
"K  c #7B92A5",
"L  c #7493AD",
"P  c #7A96AD",
"I  c #7E99AE",
"U  c #658EB0",
"Y  c #688FB0",
"T  c #6C92B1",
"R  c #7495B1",
"E  c #7997B0",
"W  c #7799B5",
"Q  c #7D99B1",
"!  c #8197A7",
"~  c #8097A9",
"^  c #839BAE",
"/  c #8A9EAD",
"(  c #849DB1",
")  c #899FB0",
"_  c #8EA0AF",
"`  c #92A3AF",
"'  c #91A1AD",
"]  c #95A3AD",
"[  c #94A3AF",
"{  c #95A4AF",
"}  c #97A4AE",
"|  c #92A2AE",
" . c #99A4AB",
".. c #9AA5AB",
"X. c #9CA6AB",
"o. c #9FA7AA",
"O. c #98A5AF",
"+. c #99A6AF",
"@. c #9BA7AF",
"#. c #9AA6AE",
"$. c #9CA8AF",
"%. c #9EA8AD",
"&. c #87A0B4",
"*. c #8FA1B0",
"=. c #8FA2B0",
"-. c #8EA2B4",
";. c #8CA1B1",
":. c #90A1B0",
">. c #91A3B1",
",. c #93A3B1",
"<. c #94A4B0",
"1. c #97A5B0",
"2. c #95A5B2",
"3. c #97A6B3",
"4. c #95A6B4",
"5. c #93A4B1",
"6. c #98A6B0",
"7. c #99A7B1",
"8. c #9BA7B0",
"9. c #9AA7B1",
"0. c #9AA7B0",
"q. c #99A7B1",
"w. c #9BA8B0",
"e. c #9BA8B2",
"r. c #9CA8B0",
"t. c #9DA8B0",
"y. c #9FAAB1",
"u. c #9DA9B3",
"i. c #9EAAB3",
"p. c #9AA9B5",
"a. c #9BAAB6",
"s. c #9DABB5",
"d. c #9EABB4",
"f. c #9EABB5",
"g. c #9CA9B2",
"h. c #92A7B8",
"j. c #A1A9AC",
"k. c #A6ACAF",
"l. c #A6ADAF",
"z. c #A4ABAE",
"x. c #A9AEAE",
"c. c #A0AAB0",
"v. c #A0ABB1",
"b. c #A1ABB1",
"n. c #A3ACB0",
"m. c #A2ACB2",
"M. c #A3ACB2",
"N. c #A6ADB0",
"B. c #A7AEB1",
"V. c #A4ACB2",
"C. c #A6AEB3",
"Z. c #A7AEB3",
"A. c #A1ACB4",
"S. c #A5AEB4",
"D. c #A3ACB2",
"F. c #AAAFB1",
"G. c #A6B0B6",
"H. c #A9B0B4",
"J. c #A9B1B6",
"K. c #AFB3B4",
"L. c #AAB1B4",
"P. c #B3B6B6",
"I. c #B0B4B5",
/* pixels */
"v S Q H L E H p i m n L S T R 8 S p.( C L H S ) 1.1.1.) :.:.4.N c Q H v m b c = < s g b A A A r C -.) ^ I / I ^ / ;./ ^ 1.e.H.C ",
"v c n n L n s y : A H s b n m 7 P f.8.f.S.u.P { V.m.1.8.^ 1.f.C c b a c n s v y < n b > y < , 6 K ( / S Z L / m.V.m.F.~ ' $.K.P ",
"A n p A S A = P P < V y c A A e P f.8.u.+.+.] k.u.m.8.+._ ' A.k d c A H c V = P S y H s , a i & K S L I S V j./ / k.' J S ^ ^ h ",
"A A y c c ; v m.V.c < m b b c & ~ u.' m.' _ k.V.[ 8.V.{ / / :.0 c T R b y ; s :.L p y c n c n 7 N ( _ / / L ! X./ J J P P I ^ c ",
"v b y = d I H./ 8.P.V u = c n 6 P ) / ^ [ ' u.{ 1.8.8.{ ;.^ p.j d m n = g P e._ I I H g < b n - D / +.+.P / /  .X.J  ./ L / k.K ",
"c b > y u.m.$.^ +.+.V.H.6 s c 6 J / / / / P L _ L ;.1./ / :.1.h 6 m a p A._ / L 8./ ;.8.p m H * P / { L A _ J D  .+.$.P ' +.k.J ",
"p i . y :./ u./ ;.u._ [ ; p U 6 P ( / x.' L ^ _ I ^ :._ J 1.:.k ; < @ y Q I P I [ 1.e./ 6 < H 7 K <.^ P ~ S ^ P / j.| X.| / ~ D ",
"p @ < S u./ / 8./ / ' u.L y a 7 J ;.1.{ H.V.u.{ <.^ L / P I H e = @ c L ( ( I / / :.( ^ L g a 8 P P A ^ / P S S / J / / ! P +.F ",
"# A u./ / P I u.' ^ ' P 1.m.V & P ( V.;.u.u./ P ^ ^ ' L _ / A h   H G.:.P L L ;.e.^ P I L :.n + L I L / P ~ S P | ~ ! /  .J +.F ",
"y :.{ _ ^ ^ P P { 8._ :.1.H.e.& G 1.m.V.^ P ' / P L P A P / ) v 6 <.I :.e.( :.e.e.H / P S / 1.= v H L / I S L V / x.~ | ! P ' l ",
"A :.8.H.m.^ P P 8./ 8.8.1.I ;.e V ) :.;.^ L L S n S S ^ / 8.e.r f 4._ J e.:.8.1.;.P L b I e.H.8 v L n S ~ A P / / ! K / / z.+.q ",
"c u.u.:.u.;.) P / ^ _ P S P 1.5 V Q L P P c s A P :./ P / P E h - <./ ^ ' ;._ ' _ :.^ P _ ;.V.* v S ^ L P P P / P P / G v $.[ k ",
"y N m.;./ u.I L / ;._ 1.P 1.C & L L n L I L L L / I ^ / ;.I L l = A _ u.P P u.' ^ / / ;.( ^ V = C L I I / A ~ P J / / ' S $.j.r ",
"c < d C _ 1.^ / I / :.e.C 8 p 8 d A ( ( ^ :./ P ^ / / ' ^ I 4.k d i ; J 8.^ ' / ^ / L ;.D 6 i e N ^ S S P ^ ^ ^ +./ $. .~ +.$.j ",
"V A y = A ^ P H P L / :.6 y A 7 P R S A P I L I b n A P H A &.j d A i p P.) L { { e.^ ^ ; a m e V L J S P / / / A J / K P +./ k ",
"N n < p / ^ S I 8.;.I / = p A 5 J h.S P H V ^ S n S n V s I R r N T g u u.( S / +./ P J ; p m 7 v L P I ' / J J N J J / V P P r ",
"g s V y y N / ^ 1.1.v 6 = b m e P ( L 1.I n L I L n V L L S T 5 v A n y p C / P P P f ; y V s 7 N S J / ' I L P / J [ / J G / k ",
"c c V A n y f _ / e s a c n n 8 N ( Q I V m n A I n n ^ L s T e C Q S n b < d ' ^ 6 p c n c n e N H / ' V V I L / ^ P P ^ N ^ r ",
"d n N v S L y C C u V p p c n 4 p H L b S P L ( H L n A H S h.C v ( n y c n @ C V y V c s s b e C ^ ' S J I S S L P I L S J I j ",
"A S V n H A c d y b g y y s n 5 A R Q T n Q Q ( R m S m Q R W r d m b A R m c y p n c i c c T 8 P f.P L R I R ( L ( ;.P L ) ( e ",
"7 4 w e 7 5 4 * * e 5 5 5 5 3 X r j e r 3 7 e e j j j e r e h 2 * 4 5 7 5 4 e % * e 4 5 e 5 j 3 0 l j j j j j j r j t q k t j 4 ",
"p A N f c V N f C c v p d f A e e c d f v d f - 6 f 8 e d p d 7 j / J J K K P J D G C c v C C e e d c 8 7 d p = - p p d p p c e ",
"n b ( A n L ^ I m s H A S A T e c A s n V b c > < p s p s i i - ^ h.( ( :.:.<.( -.Q Y s A H ( v v s a a s < a y < y y a i c U f ",
"S :._ S V P L P L V V ) A ^ ;.r p A c n b n < S s < n s n c y * e L ^ L :.1.I L I Q ( S P ) -.e h A b p n s $ H n = p < a m c 6 ",
"P 1.L S / I S L H L L n ^ u.) 7 c g b n y , n ;.A y y p a y b 8 N ;.I / ;.;.;.L I L L m P 1.p.j e A A a s = b ;.;.a > < g s i 6 ",
"L S S / <.( L S n L ;.V P P ( e d n p ; p S ;.u.I Q n u = a n 7 C Q 1.1.I L S P H n ^ ) ;.^ H r e n s = s L ;.( L S n c = A A 7 ",
"S Q P [ I ^ P n L L I I p n ( e d m y s h.:.) ^ I L P ( y c n 5 N L S H P :.( S A V 8.<.1./ A e p n g y ;.I ;._ I H V H u A T e ",
"S ;.8.^ I P S s L L L ;.S L L e v A = p ;.P ^ L I ( L L ; p m 7 v ( I V n H S S P H :.:.( / S h p A ; y P L +._ L ^ ^ n - u m 7 ",
"L P ^ ^ S A P / ) I ^ S A I L j 8 = y H ( S V L ;.e.L A V y s 5 V L A L L S b I L I H./ A Q Q j 7 ; p V ^ ( 1.L L p.P I V < , 6 ",
"L n S P A P ;.L H P ^ A L ^ Q l % A A L m n b V L ( L V A L n + v n A ^ ( ( A ^ P S :.:.S L ( r + A ( ;.;.E L ;.( P A b L ;.V O ",
"A L L S L ;.;.H V P I ^ 1.A L h 7 ;.V L L S I P S S L ;.L / ;.& G P L ^ ( ( L S I ) ^ P H L h.j 6 L L I P ) S ^ L P I n m V L ; ",
"n m ( ^ V L L Q L L P ;.e.:.L e V ;.L I L L L H I ^ H ;.P A Q 4 J Q I L ( 1.A n ) <.L V S S G.j e ( P I P 1.I S I ^ ^ L V V ^ 7 ",
"A S 1.8._ J I <.I A H L I P A 7 d e.H V L P I S L L L ^ V H Q & J H ( V P ;.H A P S :.;.V / G.j - -.^ L V L ;.L / 1./ u.P L I * ",
"n A 1.' I ;.I ^ S V n H ;._ ( r - C 1.L I ^ ^ ^ ^ ( S b I L c & N A E H V Q :.L H L ) / P L ;.q ; v / P c n A L L / ^ / 1.^ p & ",
"C ;./ L L ^ P _ I A L c L P L w p a d P ^ / I 1.^ I ( H V 6 i 4 N H L A b Q L I S I / L ^ L ( r c s y D ^ b A L V I P L C ; s 8 ",
"S 1.I c n L L / 1.P ;.;./ ^ ( j ; b , d I P L I 1.H L P ; s T 5 f A ;.R L Q L n S L P ( n H ( r p n s y I c g S V H ) _ ; s H 7 ",
"^ ;.I A P ^ V J I L e.;.^ S H j u a = d ;.( L L ;.A Q P < p n 7 N R ( L n S A m n / u.L L P ( r 6 a s d S S V n ^ I ( / u c A e ",
"L ;.P S L I L ^ / ) / ^ S S A 5 y p y = y V ^ / / J p < p b A e N S L A b A m A m S / P n n ;.e d s b < ; v V L P J p p y n L r ",
"H 1.;.L b S / P S V S ;.L I H j s s c p c < c L ~ 6 a s b c s 4 V A L Q A A I I P L ( I L V Q r d s m n c a ; ^ P 6 g s b A H 7 ",
"n ) ) S I S P P n n H ^ 1.I n 8 c s g c p c > J d y c n , A n 2 S A L ) V V L L L / S L P L A 5 d n n g c n > v e y s s A H n 4 ",
"A Q ;.I V.f.1.Q ( ( R ( ( Q U 8 v S n b n b s ; < x s b b n M 7 A R Q -.h.Q E ( R A A ) A R ( e c T n Y H n m 6 p n , , m A n 7 ",
"e j j h k 9 j j j r r 7 r h e 4 3 e 5 4 7 7 6 % * 7 4 4 7 4 7 * e z l j j e r j e 7 3 5 e e r 5 5 e 5 e e 4 e * * e * % * 3 7 5 ",
"e f N f 8 6 6 & - 8 8 f f f v 5 f v f C N v C B v N N v D C V e e d e 8 7 e d + ; v v c v V S 7 N G c f N c v V N C C N N C C e ",
"H n n A n s y , , c s s p p b 7 v A m 1.Q ( S S Q Q Q ( E A W h 7 < b n n c b < , m S n n R R h c A ^ <.H b A L L P H S A h.-.h ",
"V m s L b a = n p , b v u b H e L R A V L I P I L I ;.P A n ( e 8 s s y n n = R m , H A g c n e f L / / I V L s V S L S L H L r ",
"A A A S p = s L A < y g g A c 4 p H L n V I ;.:./ m A A H V ( l 8 n V p y $ s ( -.c y c L m c e N L / P A L H A L / ;.n L ^ L 6 ",
"A c y ; c b Q / S S b u ; p m 7 d L L P S V I L P L H V S V S r v A c = y n L A E ( b p 6 H T e N L L b b L L P I L P P ^ I ^ e ",
"n m u p -.b n L S S I ( < s b e f P L n V V n p L ( V S V L H 4 c A p p Q ;.Q L L A V H y n n 7 N ( P A L / n s P ^ L ^ :.m.I e ",
"b n - p L n A / ;.L ( L < s c e v S S S H A b s A b A S s P n 7 f V = p ;.n S L n P I S ; 6 b 8 V A n P L V a < S I P L :./ / h ",
"d - p A ^ L L ^ ( ( H V c y ; 4 p V n L L A L ) x y S L S P Q e 6 # p S S V H P ( S A P V p < e C L c P S A S n A S H P L S ( j ",
"= L I n L V S L S L I ^ / <.v % v P ^ S L b A P A c A ^ / L H e & A ( L ( ;.<.I ^ S A H L ;.n O C L ^ ^ ^ P n n V Z I H L L L e ",
"s Q P v P I S I L A L L I / ( ; v V S L ;.P I H H n S L P L S r c ;.V H ;.<.^ P ) ;.P n S ^ -.= C ^ I P A s b ^ L / I P S b S e ",
"S ) / H :.P I S I A I ;.;.P L 7 N m ^ / / ;.P A H L ^ I m L Q 6 V ( / I L ( L ^ <.( ^ / L H ;.7 J L P / L S n A ^ ( L m A n A j ",
"p ;.:.^ ^ I S H ;.^ I / I n :.5 S H I ;.:.L H Q c b V L S 1.( 7 6 ^ L ) ;.f.;.P ^ / I ^ L L I & N / P P +.e.L I ^ S A P n c R r ",
"; V :.P H I I ( <.^ b n A P v - P ( u.) I I H ( S s b s S ^ E N = p I ( P A.;.L A L P ( I / N = K H.m.^ ' u./ ;.^ A V n L L S e ",
"c < ; C L L L A :.<.s L v ; p 6 / K.;.L S I H P S m A 1 c <.( h f < 6 N ;.( S S b A L P c - s 7 J 1.L P ;._ I I L H V n A L H r ",
"s s y p ( P ^ P <.^ ;.I ; < A 5 B ;.L S ( ( H n S L A n L ( 4.h p m i p ( m A H S ^ / L y s m 8 C ( S ^ L n ^ / / ^ L L P S L r ",
"A A u 6 / ;.I ) ^ L P / ; s n 7 v Q L L 1.;.L P S A ( Q P A ( B p b p p Q R ( P A e.m./ p c n 6 C P ^ L L / ;.:./ A A P I I ( j ",
"V A c ; y C ^ A ( _ d 6 < b A e C ;.I L L A Q L L P ;.P H L Q j 8 A p ; 6 N <.L / $.N 6 = n n 8 C P L L ;.P L L L A L 1./ S ( h ",
"d b V n n s v ( P ; > < g n A 7 D ;.P H A L S I L V ( S L I R e p V S n c > d 1.u.d < n c b A 8 J 8.I S H A c b b c I H L L S e ",
"N c V Z A L < C v a n s c n m 7 L ( 1.( s A S H A P ;./ / L ;.N y b b A c y : S C < n n a b R e c ( L b n n L A n n m L S I S h ",
"S A V n c s c ; y s n g m b A e N ;.I A n < n S A / 1.L V L Q j 6 c p b y A V $ - S A c a n A 7 8 L L ^ I H ^ H V ;.S S n n ) k ",
"S n b S A A S = s H b A n H A w S Q L m H S A m S ( ( ( L S Q j N n b A s a m > s R A a i a n e V T Q p.E L ) I Q Q L A m m ( j ",
"0 w * r 7 7 e & * 8 e 7 7 7 e & 8 7 r 7 e h k r 6 e h h j j e 5 7 7 6 7 7 6 e 6 ; e e e 3 ; 8 5 5 j j e e r 4 r e h h 7 7 e r 5 "
};
