/* XPM */
static char *_a16370ee6b34a50fd270f2d644b8c4bFnCmJJ5cOHRQdYoP[] = {
/* columns rows colors chars-per-pixel */
"64 64 255 2 ",
"   c #D6AEBC",
".  c #D6ADBB",
"X  c #D5ADBA",
"o  c #D5ADBB",
"O  c #D5ACBA",
"+  c #D6AEBB",
"@  c #D6AFBC",
"#  c #D5AEBC",
"$  c #D7AEBC",
"%  c #D5AEBB",
"&  c #D6ADBC",
"*  c #D5ADBC",
"=  c #D7ADBC",
"-  c #D6ACBB",
";  c #D6ADBA",
":  c #D5ACBB",
">  c #D6ACBA",
",  c #D7AEBD",
"<  c #D8B0BD",
"1  c #D7AFBC",
"2  c #D4ACBB",
"3  c #DFACBB",
"4  c #DEADBA",
"5  c #DDACB9",
"6  c #DDABB9",
"7  c #DEACB9",
"8  c #DDADB9",
"9  c #DFACBA",
"0  c #DDACBA",
"q  c #DFADBA",
"w  c #DEADBB",
"e  c #DFAEBB",
"r  c #DEACBA",
"t  c #DFADBB",
"y  c #DEABB9",
"u  c #DEABBA",
"i  c #DEAEBA",
"p  c #DFADB9",
"a  c #DEADB8",
"s  c #DFACB9",
"d  c #DDABB8",
"f  c #DCABB8",
"g  c #DDABBB",
"h  c #DDAEBA",
"j  c #F3C6CF",
"k  c #F3C6D0",
"l  c #F2C5CF",
"z  c #F2C6D0",
"x  c #F2C6CF",
"c  c #F4C7D0",
"v  c #F3C7CF",
"b  c #F3C7D0",
"n  c #F4C6D0",
"m  c #F4C6CF",
"M  c #F1C5CE",
"N  c #F1C4CE",
"B  c #F1C5CF",
"V  c #F3C5CF",
"C  c #F2C7CF",
"Z  c #F2C5CE",
"A  c #F5C8D0",
"S  c #F4C8D0",
"D  c #F4C7CF",
"F  c #F5C7D0",
"G  c #F5C8D1",
"H  c #DBABB8",
"J  c #DCABBB",
"K  c #F8CBD4",
"L  c #FACDD5",
"P  c #F7CBD3",
"I  c #F6CAD3",
"U  c #F7CBD4",
"Y  c #F9CCD5",
"T  c #F8CCD4",
"R  c #F6CAD2",
"E  c #F6CBD3",
"W  c #F8CCD3",
"Q  c #FBCED6",
"!  c #F9CDD6",
"~  c #F5CAD2",
"^  c #F9CCD4",
"/  c #F7CAD3",
"(  c #F5CAD3",
")  c #FACDD4",
"_  c #FACCD4",
"`  c #F7CCD4",
"'  c #F9CDD5",
"]  c #FACED6",
"[  c #F6CCD3",
"{  c #F8CBD5",
"}  c #DAAAB7",
"|  c #DFAFBB",
" . c #F6C9D1",
".. c #F4C8D1",
"X. c #F4C9D1",
"o. c #F5C9D1",
"O. c #F8CBD3",
"+. c #F5C9D2",
"@. c #F4C9D2",
"#. c #F8CCD5",
"$. c #F6C9D3",
"%. c #DEAEBB",
"&. c #DCABB9",
"*. c #DBABBA",
"=. c #DFB0BB",
"-. c #F6C9D2",
";. c #F7CCD3",
":. c #FACDD6",
">. c #F4CAD2",
",. c #F8CDD4",
"<. c #FBCED7",
"1. c #F6CBD2",
"2. c #F6CAD1",
"3. c #DCAABA",
"4. c #F9CDD4",
"5. c #F5CBD3",
"6. c #DDADBA",
"7. c #DBAAB9",
"8. c #DDADBB",
"9. c #FBCDD6",
"0. c #FACED5",
"q. c #F7C9D2",
"w. c #DFAFBC",
"e. c #E0B1BD",
"r. c #F7CAD2",
"t. c #F9CED5",
"y. c #F8CDD5",
"u. c #F5CBD2",
"i. c #DAAAB8",
"p. c #E0B0BD",
"a. c #FBCFD6",
"s. c #DCACB9",
"d. c #DEAFBB",
"f. c #F6C8D1",
"g. c #DEAFBA",
"h. c #F8CAD2",
"j. c #F5CAD1",
"k. c #DFB0BC",
"l. c #DAA9B7",
"z. c #DFB0BD",
"x. c #F9CBD3",
"c. c #DBACB9",
"v. c #D9A9B7",
"b. c #DCACBB",
"n. c #DEAFBC",
"m. c #DCACBA",
"M. c #DCADBA",
"N. c #DBABB9",
"B. c #DBAAB8",
"V. c #DDAEBB",
"C. c #D7A6B4",
"Z. c #D7A7B5",
"A. c #D6A6B4",
"S. c #D5A5B3",
"D. c #D6A6B3",
"F. c #D4A3B2",
"G. c #D4A4B1",
"H. c #D6A5B3",
"J. c #D9A8B6",
"K. c #D9A9B6",
"L. c #D5A5B4",
"P. c #D3A3B1",
"I. c #D6A7B4",
"U. c #F6C8D2",
"Y. c #F8CAD3",
"T. c #E0B0BC",
"R. c #DBA9B8",
"E. c #DDAEB9",
"W. c #D6A5B4",
"Q. c #D7A7B4",
"!. c #F7C8D3",
"~. c #F9CBD4",
"^. c #DEAEBC",
"/. c #D8A7B5",
"(. c #D6A6B5",
"). c #D8A8B6",
"_. c #D9AAB8",
"`. c #DAA9B8",
"'. c #D7A6B5",
"]. c #D5A6B3",
"[. c #D4A4B2",
"{. c #D8A8B5",
"}. c #DDACBC",
"|. c #D7A5B4",
" X c #D7A6B3",
".X c #D6A4B3",
"XX c #D5A4B2",
"oX c #D7A8B5",
"OX c #DDACBB",
"+X c #D9A8B5",
"@X c #DAABB6",
"#X c #F4C9D0",
"$X c #D5A4B3",
"%X c #F1C4CD",
"&X c #D4A5B2",
"*X c #D8A7B6",
"=X c #F7CCD5",
"-X c #F5C8D2",
";X c #D9A7B6",
":X c #DAABB7",
">X c #DFAFBA",
",X c #D8A8B7",
"<X c #D8A7B4",
"1X c #D7A8B6",
"2X c #D8A9B7",
"3X c #D8A9B6",
"4X c #DCAAB9",
"5X c #F4C7D1",
"6X c #D4A5B3",
"7X c #D9AAB7",
"8X c #F7C8D2",
"9X c #D4A4B3",
"0X c #E0AFBC",
"qX c #D5A5B2",
"wX c #D7A7B6",
"eX c #DEACBB",
"rX c #F2C6CE",
"tX c #DCACB8",
"yX c #DBAAB7",
"uX c #DAAAB9",
"iX c #D5A6B4",
"pX c #D6A7B5",
"aX c #F1C5CD",
"sX c #F9CCD3",
"dX c #F3C8D1",
"fX c #F7CBD2",
"gX c #F0C3CD",
"hX c #F2C4CE",
"jX c #DCAAB8",
"kX c #D9A7B5",
"lX c #DBABB7",
"zX c #F3C8D0",
"xX c #D9A8B4",
"cX c #D5A3B2",
"vX c #DCADB9",
"bX c #DAA9B9",
"nX c #D9AAB6",
"mX c #F5C7D1",
"MX c #F7C9D3",
"NX c #FCCFD7",
"BX c #FBCED5",
"VX c #FACCD5",
"CX c #DCABBA",
"ZX c #E0AFBB",
"AX c #FBCDD5",
"SX c #F7C9D1",
"DX c #DBAABA",
"FX c #F9CED6",
"GX c #F7CAD4",
"HX c #DAA9B6",
"JX c #DBA9B7",
"KX c #DFAEBC",
"LX c #DFAFBD",
"PX c #DCADBB",
"IX c white",
/* pixels */
"  . X o O X . O + @ # $ . % o o $ @ o o & * % # . + . O + = - = . o &   ; : $   o : > O   . .   ,   . & < $ =   1 $ . X + @ 2 O ",
"3 4 5 6 7 8 9 0 q 9 w e 4 3 w 4 q 9 6 6 r 6 0 0 0 0 r r t q y u y 5 w 4 7 6 4 i 5 5 7 7 q 4 q q p 4 0 4 e e t q e 4 7 a s r d f ",
"g h j k l l z x c c v b j z z j n m x x c c M N x z l B c c x V M C j l j j Z x c A l j k x S S D x l Z x b j D F G Z x c V w H ",
"J e K L P I P U Y Y T P P P R E U P W T Q ! E ~ T ^ / ( ) _ T T R E U P T ` R E Q Q T T P P ' ] ' T I E T W [ T L L E E ] { 4 } ",
"J |  ./ / K G ..P U P E P / ' ' ' ^ X.o.T K T O.+.+.U E ~ +.@.~ ' L L L R ~ ^ T T T ~ ~ ' #.K P +.+.Y ' P P P P ~ R ^ Y T $.%.&.",
"*.=.-.P P ;.+.o.T ` W P T T :.Q L ' ~ ~ T T T ^ E R T ` >.X.~ R L Q ] :.R ~ L ' T ,.~ ~ L L T O.~ >.:.<.T P P P 1.R ] :.' 2.e 0 ",
"3.%...P R P Y ' ~ ~ T P P P L L O.O.L ' +.~ E E R I ~ ~ P U T 4.P P 5.E ' T P P E E P P ~ +.E P ' Y T T E E ~ R L ' ' T T  .| 6.",
"7.8...E P P ' ^ +.R ^ T P P 9.L W T <.9.R ~ ( ~ R R +.+.T T T Y I E >.R L Y P E @.X.T K +.+.~ R :.! U / E I / R L 0.T W ^ q.w.0 ",
"w e.P ' / P ' ' I E P E P P E r.R I I E L L L Y / E ' t.^ T ' y.( E 4.' ~ R ^ #.' #.U U I ~ ' :.-.R ~ ..o.R L L E u.L ' ~ ..i i.",
"w p./ T / E ' L I ~ ;.E P / R R I E R 1.L Q 9.L I R L a.Y Y ] ' ~ ( ] L +.~ T Y ] ' P P E R ] Q +.+.o.S +.+.] ] ~ R L L ~ v 8 } ",
"&.i r.T r.P T #.P T ' ^ P P I -.+.~ ^ Y 4.4.1.R P P Y ' P P E E T ,.' T R I Y ^ I +.K P o.-.P T / ~ -.R P P :.L T ' ,.T T q.e s.",
"7.d.P U I / U T T T y.' O.E I R +.+.' L L ^ R +.U P Y ' R ~ I / ' ' T O.R P Y T ~ -.^ U +.+.K U R R +.E T T Q L L L T ` T R d.6.",
"g d.f./ R r.R ~ ~ ~ y.y.T T +.o.T O.Y T R ~ T T L ] I ~ @.+.R R #.,.E 1./ R ~ ~ P T ' ,.I ~ P U P P ' ' ;.E 1.~ ~ I ' ' T -.%.&.",
"*.g.G R h.R o.>.~ j.T T ' Y +.+.K K K T ~ +.W P ' L +.( +.o.R ~ ' ' P R R P +.o.^ ' ' T R ( P E P U :.' K T ~ X.~ ~ :.L ` G 4 5 ",
"0 k.I O.+.o.R ~ L L Y y.Y ^ L L / I U O.O.T L L I R -.+.L ] ~ E ~ ~ K r.R E R R 4.T ^ T R R R R ~ ~ U E ^ L R R ' ' P R I c s.l.",
"8.z.P T ~ R I R L L Y ` ^ Y L L R r.O./ K x.' T -.R -.-.L Q ~ R @.+.T r.r./ $.q./ P K K R R R r.~ ~ P E 4.4.I P L L u.X.~ v c.v.",
"b.k.P ' T ^ E R R ~ ' T T o.n.s.m.M.5 8 s.c.H } H c.f w +.T R -.K E ` o.8.N.m.m.s.H B.V.c R I P R R E 1.R ~ T O.U P R R L r.%.s.",
"b.p.K :.Y ^ R ~ E ~ ' T U G i.C.Z.A.S.D.S.S.F.G.H.H.H.J...` +.R ` U K G K.L.A.A.A.H.P.I.j U.K T P / I R X.~ T T E E R E 0.Y.T.%.",
"R.E...I I E R R R R P E I o.s.J.K.Z.Z.A.W.A.Q.C.Q.C.H.J.!.U T ~./ +.^.s./.(./.).).Q.S.I._.V.o.P -.R P R T T P I ~ ~ ] L R c %.s.",
"`.8 v o.R P I ~ -.R R I E ..H J.J.Z.'.'.S.A./.C.C.H.H.K.U.K Y ^ / G l.'.Z.W.Z././.Z.A.].[.{.c P +.~ ~ R ' L I ~ @.X.0.L / ..6.H ",
"}.k.f.R R / O.P R  .o...' / v.|.W.A.A.A.A.W.C.Q.S. XC.).S P Y Y K U.K..XZ.A.S.W.H.XXS.C.H.oXS I K Y R I K T ' ' T T T Y T +.8.B.",
"OXk. .I R P O.O.o.~ o...:.r.).S.S.C.C.D.Q.Z.+XQ.Q.{./.@X#X/ Y #.P G {.$XZ.C.C.Z.Q.C.S.S.[.).S / Y ' R ~ U ` Q Q ' T #.T T r.6.i.",
"N.h F ~ T W R -.^ ^ T T :./ K.S./.Z.D.{.%Xn G v c m m m T T O.I U -.f {./.K.%Xc c Z oX&XS.). .U I R ) ' E ~ U P ~ >.R ~ Y / 4 s.",
"7.6.G j.^ T ~ R L :.T K ' -.K.D./.A.D.K.f.P ] ' P O.' Y T 4.P R U o.&.J./.l./ ' #.I *X].H.K...~ ( E ] L ~ +.I E @.@.R ~ ' / n.6.",
"s.k.K 0.P P ~ R ~ R R ~ =X/ N.J.C.A.S.K.-XO.' T r.r.R R ^ ^ ^ o.m.R.;XJ.A.{.-.T Y -.).H.A.Q.:Xc. .T -.j.X.X.L ] L L R R P +.w.5 ",
"m.>XO.] U P I I R R R R ' O.c.,XA.A.L.v.R ` ^ Y / P I U ' ^ Y o.;X|.<X/.A.v.-.K ' / v.A.C.A.W.1XG K -.X.@.>.L :.0.] P R E o.6.B.",
"B.4 Y._ Y T y.' L T E I y.-.i.Z.Z.Z.H.2XU.U ..+.T E I I ' L U ..} '.|.W.*X7...~ R b {.S.Q.Z.W.3XI ' P E ' L T T ~ ( L L Y r.4 4X",
"_.h / ^ ^ T #.4.L ,.E / K G i.Z.Z.Z.H.K.5Xr.v k -.+.I I ' L P S l.C.C.C.;X&...+.o.j {.S.Z.Z.H.,XP Q P / ' ' T P @.+.L L Y $.%.l.",
"&.d.r.K +.o.R ~ P ;.~ R P S v.A.A.S./.Z.N.N.l.K.i.0 f.~.R ~ L $.).S././.C.H -.K R c oX&XZ.Q.A.J.c I U P ~ ~ ' t.E P r.R Y P w.0 ",
"m.w.R T ~ ~ R ~ U P ~ -.R ..).S.S.S./.'.|.W.F.[.W.J.f.O.+.R ] / ).6XZ.Z.C.7X8XK -.C Z.9XZ.Z.C.K.A R T T ~ ~ L ' I P P O.:./ 0Xr ",
"0 %.c -.' ' T T O.T O.P ~ c {.A.{.C.qXH.Z.wXW.|..XK.c -.....E G K.H.*X*XC.W.4XN.i.v.H.$X$XH.C.K.G T ' L K T ^ T T T U O.P G 5 f ",
"eX0Xc R ' L T 4.^ K T T E b ).A.{./.S.S.Z.Z.A.C.H.l.D ~ ....I c K.'.J.Z.W.W.W.W.S.$XH.H.$XS.C.3X5X^ Y Y T K ^ T y.Y T U +.m 5 B.",
"i.6.G P y.^ R R Y ' y.T y.G 2XH.C.C.A.A.W.D.[.[.H.R. .^ ^ P #.-.).W.W.W.Z.'.(.'.H.H.XX[.C.Z.C.J.rXR -.o.o.R ~ +.^ T E R X.j tXyX",
"uX6.o.I ` P ~ j.L ] T ` ' -.v.H.C.I.(.iXpXZ.].D./.H -.L ^ T T / *X$XW.H.Z./.Z.C.H.H.XX[.Z.).H.{.x +.X.X.o.j.o.X.T P R R o.D 5 H ",
"*.d.I U ~ 1.' ' T ;.E ~ :./ 7XZ.A.].S.<XZ b c A aX%XR P K ` P c ).W.S.XX[.H.$X$XH.C.C.Q./.Z.XXZ.f.T U K ~ +.R E P R ' Y #.q.r yX",
"N.%.-.T ~ R ' L P 1.~ ~ :.U v. XD.].[.Q.q._ sX^ o.o.P P T T E dX/.XXS.S.qXqXH.A./././.Z.'.C.[.Z. .L ^ ) r.~ r./ P I Y ^ ^ $.6.&.",
"&.h f./ ~ I ^ W ~ +.T Y T  .).S.C.A.XXQ.m  .R fX^ T T P T ,.` +.).$XC.W.$XA.N c Z gXZ.[.S.S.C.J.n I o.o.~ R ^ T P P R R K G 6.i.",
"&.i f.r.R R ^ O.R R Y L Y  .v.A.A.A.H.Q.hX..-.-.O.O.r./ ,.#.T o.).$XC.W.[./.R T -.A {.F.H.H.Z.v.n P o.o.E E L T U P R R T -.%.s.",
"OXw.K L R R E ~ ] 4.R o.' P } D.Q.Q.H.D.} v.} B.7Xl.} s.c o.T -.jXkXQ.A.H.J.U.P c D {.9XQ.Q.Q.lXc I ~ I K ` L Y / I +.X.] O.n.6.",
"0 k.K Q / r.~ o.L L R o.L O.K.].Q.Q.D.A.W.W.D.A.$X$XH.K.c +.K -.B.*XD.A.S.{.-.K +.c Z.$XQ././.} F P P E U P ' ^ P I ..+.Q O.| 4 ",
"&.i zXE -. .O.K T P T P R k {.D././.)./.D.H.xX{.'./.J.B.j ..P A K.D./.'.cXZ. .^ K -.J.W.L.Q.C.J.f.T Y ' R ~ R +.+.R W / ' O.e 5 ",
"B.8 c R +.o.T T P P T K R j K.H.<X/.)./.D.XXZ.Z.Z./.C.i.j X.P  .J.iX/.'.S.{.I L O. .7XC.'.Z./.v.o.K Y L R +.I +.R ~ T T L -.%.f ",
"i.vX+.P o.o.P P P P K T #.I 3XH.S.S.A.A.{.Q.S.S.Q.W.G./.G R ` G Z.S.'.C.C.K.S P R D J.A.A.A.$X'.j ~ T T ~ +.K P L L T T T -.i 5 ",
"bXs.-.~.o.X.~ 1.P P T T :.I H ).I.I.J.J.nXl.Z.A.).Z.D.nXo.P T -.{.I.K.J.{.7XmXE ~ c i.{.K.).C.K.v +.Y ^ ~ ~ U E L Q ^ T P G 4 s.",
"J %.mXI ^ K T T ^ P o.~ P P MX-.x M j j c x j v F v -.-.I / #.T Z j G ..C b Y ^ R I -. .D v j v +.I P P U P / P R R O.I ' Y.e 0 ",
"OX| ..~ T L P ` Y K X.~ I E <.NXP R R / P ( ~ P P P ) ^ P P Y T ~ ( ^ T ~ P L ' R R :.Q E E E E I P E I T U U I ~ ~ K P L Y.| 5 ",
"0 e mXR P Y ) ^ K P ~ ~ P U L Y K Y Y ^ R P K ~.R R R ~ ~ I R ~ P ` W O.P P ~ ~ E P Y T P W T T ] L / P T T ' T P E I ~ Y r.T.6.",
"3.4 G E P ^ L L E I R E P fX:.T T Y Y ' O.T ^ ~.P P E E E P P E W Y ^ T W K ~ >.E P ^ O.R P ' L ] L E E K T ' L T ;.I -.#.I w.6.",
"s.h O.' ~ E R ~ ~ ( 4.' ~ o.E P fX~ ' L P E R E :.] I ( ~ R L L P E ' ' R R T ,.E E R ~ o.~ ] ] R I T Y Y T I 5.t.' ' ^ +.5Xe &.",
"7.6.Y.L r.~ R +.I P ' ! +.~ R R R I ] L r.I ~ P <.BXR R >.~ L ] P P Y ^ r.r.Y VXP P I ~ X.~ ' ' R R T T :.' R E :.L L ' -.c 8 B.",
"4X6.K L K U ( E 0.Q ] :.I ~ ^ ^ ^ #.L L P R P R 1.E 0.L I +.T ' R R R ~ L L Q ] E / O./ K T ` T ' _ R -.#.Y ^ P I I L ] U G w f ",
"CXi R Y T U I I Q Q ] t.+.( :.' ^ ^ :.Y K P r.I ~ 1.Q :.R ~ T T R R +.~ ' 0.L Q P R P P T T U ` L L -.R Y Y P R ~ +.L L K -.%.s.",
"OXZXf./ ` P P U T Y ( ~ ^ #.Y T R R R fX^ O.r.r.O.O.T ` ` y.' ' I E 0.' T T I ~ ^ K ' ' +.( ' ' ' ^ R ~ T ' P P R ~ ' ' K R d.4 ",
"b.| G R U T T T T T ~ ~ ^ 4.' T ~ ~ R R ;.P / R E P ` P L L L ' P E AX0.T T R +.T T ' ^ R E ,.T ' L I fX#.T ^ O.fXE :.L ~.r.e 5 ",
"CXh ..R P P ;.P P P T K L ' ] Q P P P P o.o.L Q L ^ R ~ R ~ / I >.+.SXR L L K P P P 4.' ] ] E E W T T W ' ^ ' ' R E ] L E c i s.",
"DXh f.R P K E E P P ^ ' ] ] :.0.T T #.U +.-.VXL L ' R R R R +.R X.+.R ~ ] ] T ;.E P ' ' ! ' P I ` ` P I ' ' ' ' I ( ' L E c %.8 ",
"7.%./ T / P E P K U E E E P FX' T T ' T ' ' R R I P R I R I U ;.T T L ' L ' ~ R +.R R ~ y.' ' T T P R R T ' ' ' ] L Y ^ ' Y.w.6.",
"4Xi r.T I P R P K P P O.R ` L ^ T T Y T L Y R o.1.P E E R R O.P ` P L L L ' R +.o.~ o.~ ^ ' #.#.U P R I ' Y #.T :.] Y T Y / | 5 ",
"g | K Y K K x.K O.` W W +.+.R R +.+.L Y P P / P W 4.L ! T U +.o.I P ;.P ~ ~ ' FXP P ^ P +.~ P I ~ ~ ' L T T I / ^ T +.~ ^ q.i H ",
"8.0XGXY T ^ ^ T fXP Y T +.X.R R o.o.L L P R P E U T VX:.P / o.~ P ` E R R ~ 0.L P K ^ U X.~ I R I ~ Y ' ^ K P O.^ O.+.+.^  .i i.",
"CX|  .U R E L T R R / / P P AXL o.R ] t.T T P O.E P L ' E / 1.P O.P L 4.U P T P ^ #.R P ' :.L Y R ~ P I T P / I P P Y ~.#./ 6.HX",
"CX| F -.G G / / G G G G MX-.K / G G K K -.-.o.G ..o./ / -.-XG o.r.G K /  . .-. .r.I o.o.K K / / G S -.-X+.X.G G U.-.-.-.-.F 0 JX",
"7.B.0 5 4 w n.w.e %.KXn.k.w.LX%.%.w %.%.8.%.%.8.6.6.d.KX6.8.6.6.i V.%.4 5 6.%.d.6.6.PXV.n.%.s.8.w %.%.4 %.%.6.vXe KX4 4 e 4 6 6 ",
"N.lXR.l.&.B.s.m.N.&.N.s.m.s.c.s.N.N.N.H N.c.&.H l.yXs.s.B.i.B.} i.B.H B.l.i.s.&.B.} } i.c.&.l.`.R.B.i.B.s.H l.v.M.s.B.B.7.B.&.m."
};
