/* XPM */
static char *_f03defcca084e4df35481218aefdd9bQfW2Aqwss61Thlvi[] = {
/* columns rows colors chars-per-pixel */
"64 64 158 2 ",
"   c #7FAC93",
".  c #83AE95",
"X  c #85B097",
"o  c #86B098",
"O  c #8BB59B",
"+  c #8FB89F",
"@  c #90B99F",
"#  c #93BCA2",
"$  c #A4C7AB",
"%  c #A6C9AC",
"&  c #A9CBAE",
"*  c #AACAAE",
"=  c #AACBAE",
"-  c #ABCBAE",
";  c #AACAAF",
":  c #AACBAF",
">  c #A8CAAD",
",  c #A8CCAE",
"<  c #A9CCAE",
"1  c #A9CCAF",
"2  c #AACCAE",
"3  c #AACDAE",
"4  c #AACCAF",
"5  c #ABCCAF",
"6  c #AACDAF",
"7  c #ABCDAF",
"8  c #A9CBAE",
"9  c #AACCB0",
"0  c #ABCCB0",
"q  c #AACDB0",
"w  c #ABCDB0",
"e  c #ABCEB0",
"r  c #ABCEB1",
"t  c #ACCDB1",
"y  c #ACCEB0",
"u  c #ACCEB1",
"i  c #ADCFB1",
"p  c #ADCFB2",
"a  c #ADCFB3",
"s  c #ADCFB2",
"d  c #ADD0B3",
"f  c #AED0B2",
"g  c #AED0B3",
"h  c #AFD0B3",
"j  c #AFD1B3",
"k  c #AFD0B4",
"l  c #AFD1B4",
"z  c #AED0B3",
"x  c #B0D1B4",
"c  c #B1D3B6",
"v  c #B2D2B6",
"b  c #B0D1B4",
"n  c #B2D4B8",
"m  c #B3D5B8",
"M  c #B3D5B9",
"N  c #B4D6B9",
"B  c #B5D6B9",
"V  c #B4D6BA",
"C  c #B5D6BA",
"Z  c #B4D7BA",
"A  c #B4D6BB",
"S  c #B5D7BB",
"D  c #B6D6BA",
"F  c #B6D7BA",
"G  c #B7D7BB",
"H  c #B5D6BA",
"J  c #B6D8BA",
"K  c #B7D8BB",
"L  c #B7D8BC",
"P  c #B7D8BB",
"I  c #B8D8BB",
"U  c #B8D9BC",
"Y  c #B9D9BC",
"T  c #B9DABD",
"R  c #BADABD",
"E  c #BBDCBF",
"W  c #BCDCBE",
"Q  c #BDDDBE",
"!  c #BDDDBF",
"~  c #BEDDBF",
"^  c #BADABD",
"/  c #BDDDC0",
"(  c #BEDCC0",
")  c #BEDDC0",
"_  c #BFDDC0",
"`  c #BDDEC0",
"'  c #BDDEC1",
"]  c #BEDEC0",
"[  c #BFDEC0",
"{  c #BFDFC0",
"}  c #BEDEC1",
"|  c #BFDEC1",
" . c #BEDFC1",
".. c #BFDFC1",
"X. c #BDDEC2",
"o. c #BEDEC2",
"O. c #BFDEC2",
"+. c #BEDFC2",
"@. c #BFDFC2",
"#. c #BFDEC1",
"$. c #BFE0C2",
"%. c #BFE0C2",
"&. c #C0DFC0",
"*. c #C0DEC1",
"=. c #C1DEC1",
"-. c #C0DFC1",
";. c #C1DFC1",
":. c #C0DEC2",
">. c #C0DFC2",
",. c #C1DFC2",
"<. c #C0DFC3",
"1. c #C1DFC3",
"2. c #C2DFC2",
"3. c #C2DFC3",
"4. c #C0DFC2",
"5. c #C1E0C1",
"6. c #C0E0C2",
"7. c #C1E0C2",
"8. c #C0E1C2",
"9. c #C0E0C3",
"0. c #C1E0C3",
"q. c #C1E1C3",
"w. c #C2E0C2",
"e. c #C2E1C2",
"r. c #C2E0C3",
"t. c #C3E0C3",
"y. c #C2E1C3",
"u. c #C3E1C3",
"i. c #C3E2C3",
"p. c #C4E1C3",
"a. c #C1E0C4",
"s. c #C1E1C4",
"d. c #C1E1C5",
"f. c #C2E0C4",
"g. c #C3E0C4",
"h. c #C2E1C4",
"j. c #C3E1C4",
"k. c #C2E1C5",
"l. c #C3E1C5",
"z. c #C3E2C4",
"x. c #C3E2C5",
"c. c #C4E1C4",
"v. c #C4E1C5",
"b. c #C4E2C4",
"n. c #C5E2C4",
"m. c #C5E3C4",
"M. c #C4E2C5",
"N. c #C5E2C5",
"B. c #C4E3C5",
"V. c #C5E3C5",
"C. c #C4E2C6",
"Z. c #C5E2C6",
"A. c #C4E3C6",
"S. c #C5E3C6",
"D. c #C5E3C7",
"F. c #C6E3C6",
"G. c #C6E3C7",
"H. c #C3E1C4",
/* pixels */
"4 & & & 4 4 % % 4 4 & & 4 e & % 4 & 4 4 % % % % % % 4 4 4 4 % % % % & 4 % % & & & % & 4 % % & & % % 4 4 & % & & % % & & & & & & ",
"4 & 4 4 e 4 & & e y 4 4 y y 4 4 e 4 4 y & 4 & & & 4 y y e 4 4 4 4 4 e e & % 4 4 4 4 e y & & 4 e 4 & e e 4 4 4 4 % % 4 e & & & & ",
"% % ! { { { ! { { { 0.0.1.1.{ { { { 1.1.{ 1.{ { 1.0.{ { 1.1.1.{ { 1.1.1.! ! { { 1.1.1.1.1.1.{ { { { 1.{ 1.0.{ { E E { 1.{ { g & ",
"% 4 { 0.0.0.{ { 1.1.j.j.j.j.{ { 0.0.j.M.0.0.0.1.M.M.0.0.0.0.j.j.j.j.j.j.1.{ 0.j.j.j.0.j.0.0.0.0.1.1.0.j.j.j.1.{ { { 0.0.1.1.g & ",
"4 y { 1.0.0.0.0.1.{ { { { { 0.0.1.1.j.j.0.1.j.j.j.M.M.M.1.1.M.M.j.0.0.0.0.0.0.j.0.j.M.M.1.! 0.M.M.j.0.0.1.1.0.M.1.{ 0.j.j.M.k & ",
"4 e { 0.0.1.0.0.1.1.1.0.1.1.j.0.1.1.j.M.0.1.0.M.M.M.M.M.0.0.M.M.j.0.0.0.j.j.0.j.j.j.M.M.1.{ p.M.M.M.0.1.1.1.0.M.1.{ 0.j.j.M.c & ",
"% 4 1.0.M.j.1.1.M.M.1.1.0.0.M.M.j.M.j.M.0.1.1.0.0.0.M.M.M.j.1.0.0.1.M.M.M.j.M.j.M.j.1.1.0.0.0.0.j.M.0.0.M.M.0.1.j.M.M.M.0.1.y & ",
"% & { 0.M.M.1.1.M.j.0.1.0.0.M.M.M.M.j.j.0.1.0.0.0.0.M.M.M.j.1.0.0.1.M.M.M.M.M.M.j.j.0.1.0.0.0.0.j.M.0.1.M.M.0.1.j.M.M.M.0.0.g % ",
"4 4 { { M.M.0.0.j.j.0.0.0.0.j.0.1.1.0.{ j.j.0.0.0.0.0.0.0.j.0.j.j.M.1.1.0.1.0.0.0.1.j.j.M.j.j.j.1.1.{ { j.M.j.M.j.0.j.M.j.j.g % ",
"4 e { { j.M.0.0.M.M.0.0.0.0.0.0.1.{ 1.1.j.M.j.0.0.0.0.0.0.M.0.0.M.M.0.0.0.1.1.0.0.{ j.M.M.M.M.j.{ { { { 0.j.j.M.j.0.j.M.j.j.y % ",
"& 4 1.0.0.1.0.0.M.M.0.1.0.j.1.1.j.M.1.1.0.M.0.1.j.j.M.0.M.M.0.j.M.M.0.0.0.1.j.M.M.0.0.0.1.0.M.M.M.M.0.1.0.j.j.M.j.j.M.M.0.0.g % ",
", e 1.0.1.1.j.j.M.M.1.1.M.j.1.1.0.j.1.1.0.M.1.1.j.M.M.j.M.M.j.j.j.M.1.1.0.1.0.p.M.M.0.0.0.0.j.M.M.M.0.1.j.j.M.M.M.M.j.M.0.0.g % ",
"% % { 1.M.M.0.0.j.j.{ { M.M.1.1.j.M.j.M.M.M.0.0.j.j.0.0.0.1.0.0.j.M.0.0.j.j.0.0.j.M.0.j.0.1.1.1.j.M.j.0.M.M.0.1.0.0.j.j.0.0.k & ",
"% & { 0.j.M.j.0.M.M.1.{ j.M.0.0.M.M.M.M.M.M.0.0.j.j.0.0.0.1.0.0.j.j.0.1.j.j.0.0.j.M.M.0.0.1.1.0.j.j.M.M.M.M.0.0.0.0.j.M.0.j.c & ",
"4 e { 1.1.1.j.j.M.M.0.1.0.0.M.M.0.0.0.0.1.1.j.M.0.1.j.M.M.M.0.1.1.1.1.1.j.M.j.0.0.j.1.{ 0.0.0.0.1.1.j.j.M.M.j.j.j.M.0.{ j.M.c & ",
"4 e 1.0.{ { j.j.M.M.0.0.j.j.M.M.j.j.0.0.{ 1.j.M.0.0.j.M.M.M.0.1.1.{ 1.1.j.M.j.j.M.j.1.1.j.j.0.M.0.{ 0.j.M.M.j.j.j.j.0.{ j.M.c & ",
"& 4 { 0.1.{ 1.1.1.{ 0.0.M.M.0.0.1.{ 0.0.1.0.1.1.0.0.0.0.M.M.M.M.1.{ j.M.M.M.1.{ 0.j.1.{ j.j.1.{ 0.M.0.0.1.1.0.1.0.j.j.j.j.j.g % ",
"% 4 { 0.0.1.1.1.{ { 1.0.M.M.0.0.{ { 0.0.{ { { { 1.0.0.0.M.M.M.M.1.1.j.M.j.0.{ { 1.0.{ { j.M.1.{ 0.M.0.1.1.{ 1.$.j.0.j.M.j.M.g % ",
"& 4 { 1.j.M.p.p.M.M.1.{ 1.0.{ 1.0.0.0.0.@ o O O O O T 0.1.1.1.1.{ { 1.1.# o O O O o S 0.1.1.0.j.j.M.M.0.0.0.0.1.0.0.0.0.0.0.g & ",
"& 4 { 0.M.M.M.M.M.M.1.1.1.0.1.1.0.0.0.0.O   . . . . S 0.1.1.1.{ 1.1.1.1.+ . . . .   m 0.{ { j.j.M.j.j.j.0.0.1.1.0.j.j.j.0.0.y & ",
"4 y 1.j.j.0.0.0.0.0.1.{ 0.j.j.j.0.0.{ { O . . . o o + + T M.j.j.0.j.j.j.@ . o o X . S 0.{ { 0.0.0.0.1.{ 1.j.M.M.j.j.j.1.j.M.g % ",
"4 y 0.j.j.0.0.0.0.0.{ { 0.j.j.j.0.0.1.{ O . . . o o o X T M.0.j.j.j.j.M.@ . o . . . S j.1.1.0.j.0.1.1.{ 0.j.M.M.j.0.1.{ j.M.g % ",
"& 4 { 1.j.j.j.M.j.j.1.1.1.1.{ 1.j.0.j.0.O . . . . . o X S 0.0.j.j.j.j.j.+ . . . . . S 0.1.j.0.0.0.0.0.M.M.j.1.1.0.j.1.1.j.M.g & ",
"% 4 { 1.0.0.M.M.M.M.1.{ 1.1.1.{ 0.0.j.0.O . X . . . . o S { 0.0.j.j.j.j.+ . . . X . S j.1.j.0.0.0.0.M.M.M.M.0.1.j.j.1.1.M.M.c & ",
"& 4 1.0.j.j.M.0.M.M.1.{ 1.1.j.M.j.0.1.{ O . X . X . o o + O T 0.{ { j.0.+ . . . o . S 0.0.j.1.1.p.j.1.1.1.1.{ { 0.1.0.j.0.j.g & ",
"& 4 1.j.j.j.j.0.M.M.1.1.0.1.M.M.j.0.1.{ O   X . . . o o . . J 1.{ { j.j.+ . . . X X m { 1.j.0.0.0.0.1.{ { { { { 1.1.j.0.0.j.k & ",
"4 y 1.0.j.M.M.j.0.1.j.M.{ { 1.1.M.M.j.0.O . . . . . X X . . O O T 0.1.0.+ . o . . . S M.1.1.j.M.j.j.j.j.1.1.0.{ 1.1.j.M.1.0.g % ",
"e y 1.0.j.j.M.j.1.0.j.M.{ { 1.0.j.M.j.0.O . . . . . . . . . . . I j.{ $.+ . X . . . J M.1.0.j.M.M.M.j.M.1.1.1.{ 0.0.j.M.1.0.g & ",
"% 4 1.0.0.1.M.j.{ 1.0.0.0.0.0.0.j.M.0.{ O . X X . . . . . . . X J 0.{ { + . . . . . S 0.1.0.j.M.j.j.1.{ 1.0.0.0.j.M.j.j.0.j.g % ",
"% 4 1.0.1.1.j.M.{ { 0.0.j.0.0.{ M.M.0.{ o . X X X X . . . . X X L j.{ { + . . . o . m 0.{ 1.j.M.M.M.1.{ 1.1.j.j.M.M.j.0.0.j.g % ",
"& 4 { 0.{ { j.j.{ { 1.1.0.0.j.j.j.j.1.{ O . . . . . c T O . . . O + S { O   . . . . S M.0.j.M.j.M.M.0.1.0.M.1.{ 1.0.1.{ 0.M.k & ",
"& y 0.j.1.1.M.j.{ { { { 0.0.M.M.j.M.{ { O . X X . . T j.+ . . . . . n { O   . . . . S M.0.M.j.M.M.M.0.1.j.M.{ { 1.1.1.{ j.M.c & ",
"4 4 1.0.M.M.j.j.j.j.j.j.0.0.0.1.1.{ j.1.o . . . . . T j.+ . . . o o + + X . . X . . S M.j.M.1.1.1.{ 0.0.0.0.j.M.0.1.0.0.0.j.g & ",
"& 4 1.0.j.j.j.j.M.M.M.M.0.1.0.1.{ { j.0.O . . . . . T M.O . . . o X . . X . . . . . S j.j.M.1.{ { { 1.0.j.0.M.M.0.{ j.j.0.j.g % ",
"% 4 { 1.M.M.0.1.0.1.{ { 1.1.j.j.j.0.0.1.O . . . . . T M.S S O . . . . X o X . X . . S j.0.j.1.1.1.0.j.M.M.M.M.M.M.M.0.{ 0.M.g & ",
"% 4 { 0.M.M.1.1.0.1.{ { 1.1.j.M.M.M.0.1.o . X . . . T M.{ 0.+ . . . . . X X . X X . S j.0.j.0.1.0.0.j.M.M.M.M.M.M.M.1.1.j.M.b & ",
"& 4 { 1.0.1.j.0.1.1.j.0.1.{ { { { { 0.0.O . . . . . T 0.{ { S S O . . . . . . . . . S 0.{ { { { 0.0.j.M.j.0.0.0.j.0.1.1.j.M.g % ",
"& e ! 1.1.1.M.0.0.1.j.j.{ { 1.{ { { 0.{ O . . . . . J $.{ { 0.{ + . . . . . . . . . S 0.{ { { { 0.0.M.M.j.0.1.0.0.0.0.0.0.M.y $ ",
"4 y 0.j.1.1.j.j.M.M.j.j.0.0.0.0.1.1.0.0.O . . . . . L 0.1.1.1.{ + . . . . . . . X X I M.j.j.{ { 0.j.0.1.j.M.1.1.p.M.M.M.0.0.y % ",
"& y j.M.1.{ j.j.M.M.j.j.M.0.1.1.0.1.j.0.O . . . . . T M.1.{ 0.0.+ . X X . . . . X o T G.M.M.{ { 0.0.1.{ M.M.1.{ j.M.M.M.0.j.g % ",
"% 4 0.j.1.1.0.0.0.0.j.j.j.0.j.M.0.0.0.{ o . . . . . J 0.{ { 0.0.L S O . . . . . X . S j.0.0.{ 1.M.M.j.j.M.M.M.M.0.1.0.0.1.j.y $ ",
"% 4 1.0.1.1.1.1.1.1.0.0.0.0.M.M.0.0.0.{ O . . . . . S { { { 0.M.M.M.+ . . . . o . . S j.0.0.1.{ j.M.M.M.M.M.M.M.1.{ 0.j.1.0.y % ",
"% 4 0.j.1.1.1.1.0.j.j.M.0.1.0.0.1.{ 1.{ O . . . . . J 0.0.0.0.0.0.0.+ . X . . . . . J M.0.j.0.{ 0.M.j.1.0.j.M.M.0.M.0.0.j.j.g % ",
"% 4 1.0.1.1.0.0.j.j.j.M.1.1.0.0.{ { 1.{ O . . . . . J 0.j.M.M.M.j.0.O   X o . . . . L M.0.M.0.1.0.M.1.1.0.0.M.M.M.M.0.0.0.j.y % ",
"& e 1.0.0.j.{ 1.0.0.0.0.p.j.j.M.j.0.1.{ O . . . . . J 1.1.0.j.0.0.1.T J + . X . . . J M.1.1.0.j.M.M.0.0.0.1.0.M.0.j.j.j.j.M.g & ",
"& 4 { 0.M.M.{ { 0.0.1.0.M.j.M.M.j.0.1.{ o . . . . . S 0.1.1.1.0.0.0.M.M.+ . . . . . S M.1.0.j.M.M.M.0.0.0.0.j.j.0.0.j.j.M.M.c & ",
"% 4 1.0.M.M.0.1.0.0.0.j.0.0.j.M.M.j.1.1.J S S S S S { 0.0.0.0.j.0.0.1.1.S m m m S S 1.0.j.M.0.1.0.M.1.0.0.0.0.0.M.M.1.1.0.M.y % ",
"& 4 1.0.M.M.{ 1.j.j.0.0.0.1.j.M.M.M.1.1.M.M.0.0.G.G.0.0.j.j.j.0.0.0.0.0.0.0.0.{ M.M.j.j.M.j.0.1.0.0.0.0.0.0.0.0.M.M.0.{ 0.M.y % ",
"4 y 1.0.0.0.j.j.1.1.0.j.0.1.0.j.M.M.0.{ 0.0.{ { { 1.M.M.0.j.M.0.{ { 1.1.1.1.{ { { { j.j.j.M.0.1.j.M.0.1.1.1.1.1.j.M.1.{ 1.0.g & ",
"4 y 1.0.1.1.M.M.1.{ j.j.1.1.0.0.M.M.1.1.j.j.1.{ 1.1.j.j.0.0.j.M.1.{ 1.{ 0.0.1.{ 1.{ 0.j.M.M.j.j.j.j.0.1.1.1.1.{ j.M.0.{ { 0.c & ",
"& 4 { { 0.0.j.M.1.1.1.1.1.1.0.M.M.j.1.1.0.0.0.0.j.0.M.j.j.M.0.0.1.0.j.j.j.M.M.j.1.1.j.M.0.j.1.1.0.0.0.1.0.M.M.M.M.M.0.{ 0.M.b % ",
"& 4 { 1.j.j.0.j.0.0.{ { { { j.M.j.j.0.0.{ { j.j.j.M.M.M.M.M.0.0.0.0.M.M.M.j.M.M.1.{ M.M.j.0.1.{ 1.j.0.1.M.M.M.M.M.M.0.{ 0.M.y % ",
"& 4 { 1.1.1.0.0.j.M.0.0.1.1.0.0.j.M.j.M.j.j.j.M.0.0.0.1.j.M.0.0.j.0.j.0.j.0.0.M.0.0.0.0.j.1.1.0.0.0.0.1.M.M.M.M.M.0.0.0.1.0.g % ",
"& 4 { { { { 0.j.M.M.j.j.1.1.0.1.M.M.M.M.M.j.M.M.1.1.1.1.j.j.0.1.j.0.0.j.0.0.0.j.0.M.0.0.1.{ 0.0.0.0.0.1.M.M.M.M.p.M.j.0.0.0.g % ",
"4 e { 0.0.0.M.j.M.M.1.0.0.0.j.j.0.0.0.0.j.j.j.M.0.1.0.M.0.1.0.0.j.j.0.0.0.0.j.j.j.M.j.M.j.j.0.1.0.j.0.{ 0.0.0.1.0.j.0.0.0.M.k & ",
"& y { 1.0.0.M.M.M.M.1.1.0.0.M.M.1.1.1.0.j.j.0.j.0.1.M.M.1.{ 0.M.M.M.0.0.1.1.M.M.M.M.M.M.M.M.0.{ j.M.1.{ 1.1.1.1.0.j.0.0.0.M.c & ",
"& 4 { j.j.j.j.j.0.1.j.j.j.j.0.0.j.M.{ 1.0.j.0.j.0.0.j.0.0.0.M.M.0.0.0.0.0.p.0.0.0.0.0.1.M.M.j.0.0.{ 0.0.0.0.0.j.1.1.1.0.j.M.c & ",
"% 4 1.j.j.j.M.j.1.{ j.M.M.M.0.0.M.M.1.{ 0.j.0.0.1.1.j.0.0.0.M.M.1.{ 0.M.j.M.0.0.0.1.1.1.M.M.M.M.1.{ 0.j.0.0.j.M.1.{ 1.1.j.M.g % ",
"4 e 1.0.1.1.1.1.0.0.1.0.0.0.1.0.1.1.{ 1.j.j.0.j.0.0.M.M.1.1.0.0.0.0.M.M.M.M.0.0.0.j.j.j.0.0.0.0.0.M.0.0.0.0.0.M.j.j.j.M.0.0.y % ",
"4 y 0.j.1.0.1.1.0.j.0.0.1.1.1.0.{ { { { j.M.j.0.M.j.M.M.0.{ 0.j.M.M.M.M.M.M.0.{ 0.0.j.j.0.1.j.j.M.M.0.0.0.0.0.M.M.M.M.M.0.0.y % ",
"& 4 { 1.0.0.0.0.0.0.0.0.1.{ 1.1.0.j.0.0.0.0.0.0.1.1.j.M.j.0.0.0.0.1.0.0.1.1.{ { 0.1.j.j.1.1.1.1.1.1.1.1.1.j.0.0.1.1.j.M.0.0.g % ",
"& 4 0.j.j.M.M.M.j.j.M.M.1.1.1.0.M.M.M.M.0.j.j.M.j.0.M.M.M.M.0.0.0.0.0.0.{ { 1.1.0.0.M.M.0.1.1.0.1.1.0.1.0.M.M.j.0.1.M.M.M.M.g % ",
"& & y g k k y y g k c c y y c k k g y g b c y g b c c c y y y g y y k g e e y y y y c c g y y g g y y y y g y y y y y g y y & % ",
"& % % % % % % % % % % % % % & % % % % % & & % $ & & & & % % % % % $ & & $ $ % % % % & % % % % % % % $ $ % % % % % $ % % $ $ % & "
};
