/* XPM */
static char *_47821f625ee4fedd2b15393a54be079vElskcMOuPv9oCgJ[] = {
/* columns rows colors chars-per-pixel */
"64 64 169 2 ",
"   c #7EAEC3",
".  c #81AFC4",
"X  c #84B1C5",
"o  c #8CB4C7",
"O  c #86B3C8",
"+  c #8DB5C8",
"@  c #90B7C7",
"#  c #91B7C9",
"$  c #91B8C9",
"%  c #93B9C9",
"&  c #90B8CA",
"*  c #91B8CA",
"=  c #92B8CA",
"-  c #93B8CA",
";  c #92B9CA",
":  c #93B9CA",
">  c #92B8CB",
",  c #92B9CB",
"<  c #93B9CB",
"1  c #92BACB",
"2  c #93BACB",
"3  c #93BBCB",
"4  c #94BACA",
"5  c #94BACB",
"6  c #93BACC",
"7  c #94BACC",
"8  c #94BBCC",
"9  c #95BBCC",
"0  c #95BBCD",
"q  c #96BBCC",
"w  c #97BBCC",
"e  c #96BBCD",
"r  c #96BCCD",
"t  c #97BCCD",
"y  c #97BDCD",
"u  c #96BCCF",
"i  c #93B9CB",
"p  c #98BDCE",
"a  c #98BDCE",
"s  c #A7CCDD",
"d  c #A9CEDE",
"f  c #A9CEDF",
"g  c #A9CFDF",
"h  c #ABCFDE",
"j  c #AACEDF",
"k  c #ABCEDF",
"l  c #AACFDF",
"z  c #ABCFDF",
"x  c #ACCFDE",
"c  c #ACCEDF",
"v  c #ACCFDF",
"b  c #ABCEDF",
"n  c #ADD0DF",
"m  c #ADD0DF",
"M  c #A9CEE0",
"N  c #A9CFE0",
"B  c #AACEE0",
"V  c #ABCEE0",
"C  c #AACFE0",
"Z  c #ABCFE0",
"A  c #AACFE1",
"S  c #ABCFE1",
"D  c #ACCFE0",
"F  c #AECFE0",
"G  c #ABCFE0",
"H  c #ABD0E0",
"J  c #ACD0E0",
"K  c #ADD0E0",
"L  c #ADD1E0",
"P  c #ACD0E1",
"I  c #ADD0E1",
"U  c #ACD1E1",
"Y  c #ADD1E1",
"T  c #AFD0E0",
"R  c #AED1E0",
"E  c #AFD1E0",
"W  c #AED0E1",
"Q  c #AFD0E1",
"!  c #AED1E1",
"~  c #AFD1E1",
"^  c #AED2E1",
"/  c #AFD2E1",
"(  c #ADD0E2",
")  c #ADD1E2",
"_  c #ADD1E3",
"`  c #AED0E2",
"'  c #AED1E2",
"]  c #AFD1E2",
"[  c #AFD1E3",
"{  c #AED2E2",
"}  c #AFD2E2",
"|  c #AFD3E2",
" . c #AED2E3",
".. c #AFD2E3",
"X. c #AFD3E3",
"o. c #AED1E1",
"O. c #B0D1E0",
"+. c #B1D1E0",
"@. c #B0D1E1",
"#. c #B1D1E1",
"$. c #B2D1E1",
"%. c #B1D2E0",
"&. c #B0D2E1",
"*. c #B1D2E1",
"=. c #B0D3E1",
"-. c #B1D3E1",
";. c #B2D2E1",
":. c #B3D2E1",
">. c #B2D3E1",
",. c #B3D3E1",
"<. c #B0D1E2",
"1. c #B0D2E2",
"2. c #B1D2E2",
"3. c #B1D3E2",
"4. c #B0D2E3",
"5. c #B0D3E3",
"6. c #B1D3E3",
"7. c #B2D2E2",
"8. c #B3D2E2",
"9. c #B2D3E2",
"0. c #B3D3E2",
"q. c #B2D2E3",
"w. c #B2D3E3",
"e. c #B3D3E3",
"r. c #B4D3E2",
"t. c #B4D3E3",
"y. c #B1D4E3",
"u. c #B2D4E2",
"i. c #B3D4E2",
"p. c #B2D4E3",
"a. c #B3D4E3",
"s. c #B3D5E3",
"d. c #B4D4E2",
"f. c #B4D4E3",
"g. c #B5D4E3",
"h. c #B4D5E3",
"j. c #B5D5E3",
"k. c #B5D6E3",
"l. c #B2D4E4",
"z. c #B3D4E4",
"x. c #B3D5E4",
"c. c #B3D5E5",
"v. c #B3D6E4",
"b. c #B3D6E5",
"n. c #B4D4E4",
"m. c #B5D4E4",
"M. c #B4D5E4",
"N. c #B5D5E4",
"B. c #B4D5E5",
"V. c #B5D5E5",
"C. c #B6D5E4",
"Z. c #B4D6E4",
"A. c #B5D6E4",
"S. c #B4D6E5",
"D. c #B5D6E5",
"F. c #B5D7E5",
"G. c #B6D6E4",
"H. c #B6D6E5",
"J. c #B6D7E5",
"K. c #B4D5E6",
"L. c #B4D6E6",
"P. c #B5D6E6",
"I. c #B4D7E6",
"U. c #B5D7E6",
"Y. c #B6D6E6",
"T. c #B6D7E6",
"R. c #B6D7E7",
"E. c #B3D3E3",
"W. c #B6D8E6",
/* pixels */
"o o ; ; o o # # ; ; + + # # o o o o # # # # o o # # + + ; # + o o o # # o o ; # o o + + o o + # o o + # o o o o # # # # o o o o ",
"o o ; ; ; ; ; ; 9 ; ; # ; ; + # # + ; ; ; # # # ; ; ; ; ; ; ; # # # ; ; ; ; ; ; + # ; # # + ; ; + + # ; # + # + ; ; ; # + + o o ",
"+ 9 J J l C J J J J D D J J 9.9.l l J 9.J C C l J J C C J J J J J J J J J J J J J J v D J H H J J C C D 9.9.J D J J J C C l + O ",
"# r J J J J J J i.9.J J i.i.S.S.J J x.S.9.J J J i.i.J J J J j.x.9.9.9.9.9.J J J J 9.J J J J J J 9.9.J J i.9.9.9.9.9.J J J C # o ",
"o 9 9.9.i.9.J 9.i.x.S.S.S.i.i.9.S.S.9.9.9.9.i.j.S.S.i.i.i.9.9.9.9.9.S.x.i.i.S.j.9.J 9.9.J J i.j.S.S.9.9.J J j.S.i.9.J J i.9.; # ",
"+ 9 9.9.j.i.J 9.j.S.S.S.j.j.9.9.S.S.9.9.9.9.S.j.S.S.i.i.j.j.9.9.9.i.S.S.i.i.S.j.9.9.j.r.9.9.j.S.S.S.9.9.J J S.S.i.i.9.J i.9.; # ",
"# r S.S.S.S.i.9.S.S.S.S.9.9.9.9.J 9.9.9.j.j.j.j.S.S.9.9.J J j.j.j.x.S.S.S.S.S.j.S.i.S.j.j.j.9.9.S.S.9.9.J J S.S.S.S.S.S.i.J 4 # ",
"+ r S.S.S.S.i.9.S.S.S.S.9.9.9.J J J 9.i.j.r.j.j.W.S.i.9.J J j.S.j.i.S.S.x.S.S.S.S.i.9.9.S.j.9.9.S.S.9.9.J J S.S.S.S.S.j.i.J ; # ",
"o ; J J S.S.9.i.S.S.S.j.9.9.9.9.S.j.j.j.S.S.r.i.S.S.9.9.9.9.S.S.r.S.S.i.9.9.J J 9.9.9.9.S.S.j.S.S.i.J J r.j.9.9.S.S.J J S.9.; + ",
"o 9 J J S.S.9.9.j.j.j.j.9.9.9.9.j.j.j.j.S.S.9.i.S.S.9.9.i.9.i.i.9.j.S.j.9.9.J J 9.9.9.9.S.j.j.j.j.i.9.9.9.r.i.i.S.S.J J i.9.; + ",
"+ p x.i.S.S.9.9.9.9.j.S.S.S.9.r.9.9.S.S.j.i.i.i.S.S.9.r.S.j.J J j.j.S.S.S.j.9.9.9.9.9.9.J J 9.9.j.j.S.S.J 9.S.S.9.9.9.9.9.v 6 ; ",
"o r S.x.S.S.9.9.9.9.S.j.S.S.9.9.9.9.S.S.i.i.j.9.S.S.9.j.S.j.J J j.x.S.S.S.i.9.9.9.9.9.9.J J 9.9.9.S.S.S.J 9.S.S.9.9.9.9.9.D ; # ",
"o ; x.9.J J 9.9.S.S.j.i.J J J 9.9.9.i.9.J J 9.9.j.j.S.S.9.9.9.9.9.9.S.S.J J x.S.9.9.J J S.S.9.J J 9.S.S.S.i.9.9.j.j.j.i.J l # o ",
"o 4 x.9.J J 9.9.S.S.i.i.J J J J 9.9.9.9.J J 9.9.j.j.S.S.9.9.9.9.9.9.S.x.J J S.S.9.9.9.J S.S.9.9.9.J S.S.S.j.9.9.j.S.j.9.J v ; + ",
"# r x.x.9.9.9.9.J J 9.9.9.9.S.S.9.9.j.i.9.9.S.S.j.9.9.9.9.9.S.S.9.9.9.9.J J S.S.S.S.9.9.i.x.9.9.j.i.9.9.9.9.9.9.S.S.J J 9.J ; # ",
"# r x.i.9.9.9.9.J J 9.9.9.9.S.S.9.9.9.i.9.9.S.j.9.9.9.9.9.9.S.S.9.9.9.9.J J i.S.S.S.9.9.j.j.9.9.j.i.r.i.9.9.9.r.S.x.J J 9.J ; + ",
"+ 9 i.9.j.j.j.i.9.9.j.9.9.9.S.S.9.9.J J 9.9.9.9.9.9.9.9.9.9.S.S.S.i.9.J i.j.9.9.S.S.i.9.9.9.J J J J S.j.9.9.S.S.S.S.9.9.9.J ; + ",
"+ ; 9.9.i.i.j.j.9.9.x.i.9.9.S.S.i.9.J J j.i.9.9.9.9.9.9.9.9.9.i.9.i.9.J x.i.9.9.x.S.i.9.9.9.J J J J j.S.9.9.S.S.S.S.9.9.9.9.; # ",
"o ; 9.9.J J 9.9.S.S.S.x.J J S.S.J J 9.9.S.i.J 9.J J j.S.j.i.J J J J J J J J j.i.J J J J J J 9.9.9.9.9.9.9.9.S.j.9.9.9.9.9.9.; # ",
"o 9 i.9.J J 9.9.S.S.S.i.C C 9.9.D J 9.9.S.i.J 9.J J S.S.j.9.J J C l l C 9.J 9.J C l l C l l n J J n 9.9.9.9.j.j.9.9.9.9.i.9.# + ",
"o 9 J J j.i.9.9.S.S.x.l X X X X X + i.S.9.9.S.S.j.j.9.9.J J 9.l O X O + x.J X X X X X X X X O X X + 9.S.9.9.9.9.9.9.S.S.9.J # # ",
"# 9 J J j.S.i.9.j.S.S.l . . . . . + S.S.9.9.S.S.j.j.9.9.J J x.D X   . O 9.J .       . .     X X . X 9.j.9.9.9.9.9.9.S.S.9.J ; o ",
"@ 9 x.S.j.j.S.S.r.9.j.v O X X X X + x.S.9.i.S.S.9.9.9.i.J J S.J X X X + J l X X . . X X     . . X X J 9.j.j.j.9.J J 9.9.J l + O ",
"o 9 S.S.j.S.S.S.9.9.r.l O O . X X + x.S.9.9.S.S.9.9.j.9.J J S.J O X X + J v X X . . X X     . . X O J J i.j.S.j.J J i.9.J l + o ",
"o 9 9.9.9.i.S.j.9.9.S.J X X . X . O J 9.9.9.j.i.r.i.9.9.i.9.S.J X X X + i.J     X .   . X X X . . X D 9.9.9.S.S.9.9.S.S.x.9.; # ",
"+ 9 l.9.9.9.S.i.9.9.S.n X X X X   o J 9.9.9.i.i.j.9.9.9.S.j.S.J X X X + 9.v     . . . . o + O o X + J 9.9.9.S.S.9.9.S.S.S.9.; # ",
"o ; i.9.9.9.J 9.S.S.J l X X X X . + 9.j.9.9.J J r.j.9.J j.j.9.l X X X + i.n X . . . X o l l v J J J 9.9.J J J J 9.9.9.9.i.9.; # ",
"o 6 l.9.9.9.J 9.S.S.9.l X X . . X + 9.j.9.9.J 9.9.9.9.J x.i.9.n X . X + 9.9.X X . . X + H J 9.9.9.i.9.9.9.J J J 9.9.9.9.i.9.4 # ",
"# r 9.9.9.9.S.S.S.S.S.v O X . . . o J 9.i.9.j.9.J J S.S.i.9.j.v X . O + 9.n X       X o J 9.9.9.x.S.9.9.i.r.r.r.j.i.j.i.J l + o ",
"# r J J 9.9.S.S.S.S.S.J o X .   . o J J i.9.9.J l l i.i.j.j.j.v X X O + 9.J X       . X D J J J x.S.i.9.r.9.r.r.j.i.S.j.J l + o ",
"o 9 9.9.S.j.S.S.i.9.i.l X . .   . o J J j.v X X X X X + x.S.i.v X X X o 9.J X X X X . X X X X + C J i.j.S.S.9.9.S.S.S.S.i.J ; # ",
"+ 4 9.9.S.j.S.S.j.9.9.l X . . . . O J J j.l X X . . . o x.S.i.v X X X o 9.J X X X X X . . .   X C J 9.j.S.S.9.9.S.S.S.S.r.J ; # ",
"# 9 9.9.j.j.9.9.J J j.v X X X X . o J J 9.l X . X X X + 9.x.9.v X X X o i.J X .         X X X o J 9.j.9.9.r.S.S.j.S.S.S.9.J ; + ",
"o 9 9.9.j.j.J 9.J J r.v X X X X . + J 9.J l X . X X X + 9.i.i.l X X X o 9.J X . .       X . X + J 9.9.j.9.i.S.S.S.x.S.S.9.9.; + ",
"# p S.S.9.i.j.j.j.9.j.l .   . X X + 9.9.9.l X . X X X o J J 9.v X     X 9.J X X X X X X X .   X l J J J S.S.9.9.9.9.J J 9.9.; # ",
"# r S.S.9.i.j.j.j.9.j.v X   . . . + 9.9.J s X . X X X + l C 9.l X     X 9.J X . X X X X X X X O C J J J S.S.9.9.9.J J J 9.J ; # ",
"o 9 j.r.9.9.J J j.S.S.v X X       X J l X X X X O O X X X O J l X X . X 9.J .         X s H C J x.S.i.i.S.j.J J 9.i.9.9.9.v # o ",
"o 6 j.j.9.9.J J j.S.j.v X X       X J s X . X X O X X X   X 9.v X . . O 9.n X         X H J J J S.S.9.j.S.S.9.J 9.r.9.9.9.v # o ",
"o r 9.9.S.j.9.9.9.9.j.l X X O X . + J l .   . . X X . . X + j.J X . . X J n X .       X J J J 9.9.9.i.9.S.S.9.9.9.9.S.S.j.J ; # ",
"+ 9 9.9.j.i.9.i.9.9.j.l X X o X . X H s .   . . o o X X . + J l X X . X J v X .       X l C l l C l 9.9.S.S.r.9.9.9.S.S.r.J ; # ",
"o ; 9.J J J 9.9.S.S.S.x.J s X . X X X X X X X + J l X X   . + X X X X + J n X . X X X X X X X X X O J 9.9.9.S.S.J 9.9.9.J v ; # ",
"o ; J J J J 9.9.S.S.S.9.9.l . . X X . . X X X + 9.n X X     X X X X X + J J X . X X X X           X J 9.9.9.S.S.J J 9.9.J l ; # ",
"+ 9 i.S.r.j.r.9.9.9.r.9.J s . . X X X X . . X + J l     X X X X X X X O 9.J X X X .     .   X X . X J 9.9.9.r.r.9.9.S.x.9.J ; + ",
"+ 9 S.i.r.j.r.9.9.9.9.9.9.s . . X X X X . X X + J l X X X X X X X X X + 9.J X X X X     .   X X   X C J J 9.i.9.9.x.x.x.9.J 6 + ",
"o 6 J J 9.9.J J 9.9.i.r.j.l     X . . . X O C J 9.J J l X . X X X O l J S.J X   X X X X     . . . X C J 9.i.9.9.j.i.S.S.J J ; + ",
"+ 6 J J 9.9.J J 9.9.j.r.j.v X X X X X X X + J 9.9.9.9.v O X X X O + J J S.J X X X X O X X X X O X O C J 9.i.r.9.9.9.S.S.9.J ; + ",
"+ 6 J J 9.J 9.9.9.9.9.9.r.9.9.J J J J J l C 9.9.9.9.J J n J J J C D i.x.J J C C J J 9.J C C C J 9.J J J 9.9.9.9.J J J J i.9.9 ; ",
"o ; J J 9.9.r.r.r.9.9.r.j.r.S.j.r.r.9.9.J J 9.9.9.i.J 9.9.9.9.9.J 9.x.x.9.J J 9.9.9.S.S.J 9.9.9.S.S.J 9.9.9.9.9.J J J J j.9.9 ; ",
"o 9 9.9.9.9.r.r.9.J 9.9.S.S.j.r.9.9.S.S.S.S.9.9.9.9.S.S.9.J J J 9.9.9.J J 9.S.S.9.9.9.9.J J 9.j.S.S.9.9.j.i.9.J x.S.n.S.S.9.9 ; ",
"# 9 9.9.9.9.r.9.9.J 9.9.S.S.r.9.9.r.S.S.j.S.9.9.9.9.S.S.9.9.J J 9.9.9.9.J 9.S.S.9.9.r.9.J J r.j.S.S.9.9.S.S.9.9.n.S.r.S.S.9.4 ; ",
"# 9 9.9.j.j.J J 9.9.9.9.9.9.J J 9.9.j.r.9.9.j.9.9.9.S.S.S.S.9.9.9.9.j.i.9.9.r.9.9.9.9.9.9.9.j.9.J J S.S.S.S.j.9.9.9.9.9.9.J 4 # ",
"# r 9.9.j.j.J J r.9.9.9.9.9.9.9.9.9.9.9.9.r.j.i.9.9.S.S.S.S.9.9.9.9.S.x.9.9.j.j.9.9.9.J 9.9.9.i.J J S.S.S.S.j.j.9.9.9.9.i.J # # ",
"o 9 J J 9.9.9.9.j.j.J J 9.9.r.j.j.r.9.9.S.S.9.J 9.9.9.9.9.9.i.9.9.9.9.9.9.9.J J 9.9.9.J J J 9.9.J J 9.9.9.9.9.9.9.9.9.9.J l # # ",
"+ 6 J J 9.9.9.9.j.i.9.9.9.9.j.j.j.j.i.9.S.j.9.9.9.9.9.9.J 9.r.9.9.J 9.9.9.9.J J i.r.9.J J J 9.9.9.9.9.9.9.9.9.9.9.9.9.9.J l ; # ",
"# 9 9.9.J J 9.9.J J j.i.r.r.S.S.9.9.9.9.J J j.r.j.j.9.9.9.9.j.i.S.S.J J 9.9.x.S.S.j.S.S.j.9.9.9.j.j.9.9.9.9.9.9.9.9.S.S.S.J ; @ ",
"+ 9 9.9.J J 9.9.J J j.9.S.r.S.S.9.J 9.9.J 9.j.j.S.j.9.9.9.9.i.i.S.S.J 9.9.9.S.S.j.i.S.S.j.j.9.9.S.S.9.9.9.9.9.9.J J S.S.S.J ; o ",
"+ 9 i.r.9.9.S.S.j.j.S.j.9.9.j.S.J J J J j.j.j.j.J J i.9.J J J J i.9.S.S.S.S.S.i.J J S.S.9.9.S.S.S.S.J 9.J J 9.9.9.i.S.x.J l # o ",
"o 9 x.9.J 9.j.j.j.S.S.j.9.9.S.S.J J J 9.j.S.j.i.J J 9.9.J J J J 9.9.S.S.S.S.S.x.J J S.S.9.9.S.S.j.S.J J J J 9.9.i.9.j.9.J D ; + ",
"o 9 S.i.J 9.9.r.S.S.S.S.9.9.j.j.9.9.j.r.r.9.J J 9.9.S.S.i.i.9.9.9.i.J J J 9.9.9.9.9.9.9.9.9.9.9.9.9.S.j.i.i.j.9.9.9.9.9.9.9.4 # ",
"+ 9 S.9.J J r.9.j.S.i.S.9.9.r.j.9.9.9.i.9.9.J J 9.9.S.S.9.9.9.9.9.9.J J J 9.9.9.9.9.9.9.9.9.J J 9.9.n.x.x.x.i.9.9.9.J 9.9.9.4 # ",
"+ 9 J J 9.i.S.S.J J J J J J 9.9.r.r.J J 9.j.9.9.9.9.9.i.j.i.9.9.J J i.r.S.S.J J 9.9.J J 9.9.9.9.9.J J J J J J J 9.9.9.9.9.J ; + ",
"+ 9 J D J 9.9.9.l l l l C l J J J 9.D J 9.9.9.9.J J 9.9.9.9.9.J C C 9.9.9.9.C C J v l D J J 9.J 9.D l C C l l C J J J J J l # + ",
"o o ; ; ; 6 9 ; ; ; ; # # # 4 ; ; ; 6 ; # + ; # # # 4 ; ; # # # # # # # ; ; ; ; 4 4 # # ; # 4 4 4 # # # ; ; 4 ; # # ; # # # o o ",
"+ + + o # # # # + + + + + + + + + + + + + O + + o + # + + + + + + + + + + + # + # # # + + + + + # + o o + + # # + + + + o + o o "
};
