/* XPM */
static char * dot_xpm[] = {
"34 34 2 1",
" 	c None",
".	c #BDB4A3",
"                                  ",
"                                  ",
"                                  ",
"                                  ",
"                                  ",
"                                  ",
"                                  ",
"                                  ",
"                                  ",
"                                  ",
"                                  ",
"                                  ",
"        ...............           ",
"        ...............           ",
"        ...............           ",
"        ...............           ",
"        ...............           ",
"        ...............           ",
"        ...............           ",
"        ...............           ",
"        ...............           ",
"        ...............           ",
"        ...............           ",
"        ...............           ",
"                                  ",
"                                  ",
"                                  ",
"                                  ",
"                                  ",
"                                  ",
"                                  ",
"                                  ",
"                                  ",
"                                  "};
